<?xml version="1.0" encoding="UTF-8" standalone="no"?>
<svg
   xmlns:dc="http://purl.org/dc/elements/1.1/"
   xmlns:cc="http://creativecommons.org/ns#"
   xmlns:rdf="http://www.w3.org/1999/02/22-rdf-syntax-ns#"
   xmlns:svg="http://www.w3.org/2000/svg"
   xmlns="http://www.w3.org/2000/svg"
   viewBox="0 0 256 128"
   height="128"
   width="256"
   version="1.1"
   id="svg2">
  <metadata
     id="metadata8">
    <rdf:RDF>
      <cc:Work
         rdf:about="">
        <dc:format>image/svg+xml</dc:format>
        <dc:type
           rdf:resource="http://purl.org/dc/dcmitype/StillImage" />
        <dc:title></dc:title>
      </cc:Work>
    </rdf:RDF>
  </metadata>
  <defs
     id="defs6" />
  <path
     id="path3363"
     d="m 163.74402,128 -0.99736,0 0,-6.53138 0,-6.53139 1.56308,-0.6014 1.56308,-0.6014 1.11317,1.11612 1.11318,1.11612 -0.73577,0.7377 -0.73576,0.73771 -0.92786,-1.47104 -0.92785,-1.47104 -0.0153,6.75 -0.0153,6.75 -0.99736,0 z m -114.42313,-3 -0.78651,0 0.356955,-4.5 0.356955,-4.5 0.896934,0 0.896934,0 0,2.5 0,2.5 0.997361,0 0.997362,0 0,-2.5 0,-2.5 0.997361,0 0.997362,0 0,2.59362 0,2.59362 -1.925731,0.50492 -1.92573,0.50492 -0.536372,1.40146 C 50.348767,124.36934 49.753471,125 49.32089,125 Z m -45.295841,-1.21504 -2.9635401,0.0845 -0.52674558,-1.37631 c -0.28971059,-0.75696 -0.37108831,-2.19009 -0.1808406,-3.18472 L 0.69982869,117.5 3.980841,117.33495 l 3.2810123,-0.16504 -1.2384987,1.49625 -1.2384986,1.49624 1.1018671,1.76904 1.1018671,1.76904 -2.9635412,0.0845 z m -1.1994021,-1.51593 c 0.2732003,-0.67703 0.2898313,-2.02703 0.036952,-3 L 2.4028275,117.5 l -0.036952,3 -0.036952,3 0.4967279,-1.23097 z M 9.0983252,124 l -1.052008,0 0.3039869,-4.75 0.3039878,-4.75 2.4934041,0 2.493403,0 0.106043,2 c 0.05833,1.1 0.434703,2.76595 0.8364,3.70211 l 0.730358,1.70212 -0.645921,1.04788 C 14.312722,123.52845 13.64175,124 13.17693,124 l -0.845128,0 0.492197,-1.88714 0.492196,-1.88714 -0.990617,-0.61386 -0.990618,-0.61385 0.521372,-1.99901 0.521373,-1.999 -1.113686,0 -1.113685,0 0,4.5 0,4.5 -1.0520088,0 z m 8.0335398,0 -0.997362,0 0,-5 0,-5 3.490766,0 3.490765,0 0,1.5 0,1.5 -0.997361,0 c -0.548549,0 -0.997362,-0.45 -0.997362,-1 l 0,-1 -1.496042,0 -1.496043,0 0,4.5 0,4.5 -0.997361,0 z m 9.081012,0 -0.892603,0 -0.380455,-4 -0.380455,-4 3.044797,0 3.044797,0 -0.380455,4 -0.380455,4 -0.832397,0 -0.832397,0 -0.391228,-3.75 -0.391227,-3.75 -0.167659,3.75 -0.16766,3.75 -0.892603,0 z m 9.370177,0 -3.490766,0 0,-0.67126 c 0,-0.36919 0.684542,-1.42967 1.521204,-2.35662 l 1.521205,-1.68536 -1.521205,-1.26582 c -0.836662,-0.69621 -1.521204,-1.66073 -1.521204,-2.14338 l 0,-0.87756 3.490766,0 3.490765,0 0,1.01905 0,1.01905 -2.742744,-0.6432 -2.742745,-0.6432 1.724997,1.818 1.724997,1.81799 -1.724997,1.95589 -1.724997,1.95589 2.742745,-0.66879 2.742744,-0.66878 0,1.01905 0,1.01905 -3.490765,0 z m 7.227855,-0.18631 -1.748399,0.33412 -0.580016,-1.51549 c -0.319008,-0.83352 -0.426178,-2.32928 -0.238156,-3.32391 l 0.341859,-1.80841 3.482597,-0.2821 3.482598,-0.28211 -1.146153,0.78211 -1.146153,0.7821 -0.349889,2.48978 -0.34989,2.48979 -1.748398,0.33412 z m -0.0908,-1.54466 c 0.2732,-0.67703 0.28983,-2.02703 0.03695,-3 L 42.297294,117.5 l -0.03695,3 -0.03695,3 0.496728,-1.23097 z M 60.018412,124 l -0.997362,0 0,-3.46862 0,-3.46861 -1.659655,0.63855 -1.659654,0.63856 0.679623,-1.10256 0.679622,-1.10257 3.021131,0.0861 3.02113,0.0861 -1.043737,1.0465 -1.043737,1.04655 0,2.8 0,2.8 -0.997361,0 z m 7.978892,-0.15789 -3.490766,0 1.210736,-0.49237 1.210736,-0.49237 -1.15073,-1.84748 -1.150731,-1.84749 1.228325,-1.48395 1.228324,-1.48396 -1.28833,-0.5183 -1.28833,-0.5183 3.490766,0 3.490765,0 -1.210735,0.49237 -1.210736,0.49237 1.15073,1.84748 1.150731,1.84749 -1.228325,1.48395 -1.228324,1.48396 1.28833,0.5183 1.288329,0.5183 -3.490765,0 z m 0,-2.84211 0.997361,0 0,-1.5 0,-1.5 -0.997361,0 -0.997362,0 0,1.5 0,1.5 0.997362,0 z m 7.402861,3 c -0.645947,0 -1.712668,-0.65023 -2.370493,-1.44496 l -1.196045,-1.44496 0.325902,-2.20291 0.325902,-2.20291 1.661781,-1.04414 1.661782,-1.04414 1.579643,1.31445 1.579644,1.31446 0,2.17755 0,2.17756 -1.196834,1.2 c -0.658259,0.66 -1.725336,1.2 -2.371282,1.2 z m 0.715143,-1.5862 c 0.472038,-0.29251 0.85825,-0.95528 0.85825,-1.47282 l 0,-0.94098 -1.496042,0 -1.496043,0 0,0.83333 c 0,0.45834 0.287007,1.1211 0.637793,1.47282 l 0.637793,0.63948 0.858249,-0.53183 z M 75.477516,119 l 1.662269,0 -0.357388,-1.075 c -0.196563,-0.59125 -0.78376,-1.075 -1.304881,-1.075 -0.521122,0 -1.108318,0.48375 -1.304881,1.075 l -0.357389,1.075 1.66227,0 z m 6.300811,4.99878 -1.314004,-10e-4 0,-3.94661 0,-3.9466 1.27415,-1.2797 1.274159,-1.27971 1.717925,1.08819 1.717936,1.08819 0,4.13812 0,4.13812 -1.314004,10e-4 -1.314004,0.001 0.316642,-3.95797 0.316642,-3.95796 -0.997361,0 -0.997362,0 0.316643,3.95796 0.316642,3.95797 -1.314004,-0.001 z m 10.613293,-0.2066 -2.035764,0.29219 -0.70698,-0.70885 c -0.388841,-0.38987 -0.70698,-1.54798 -0.70698,-2.57357 l 0,-1.86472 1.521495,-0.5854 1.521505,-0.5854 -1.135147,-1.37138 -1.135147,-1.37138 1.575473,-0.60617 1.575462,-0.60616 1.279605,0.51538 1.279605,0.51539 -1.899964,0.0789 -1.899964,0.079 1.730771,1.91753 1.730762,1.91754 -0.329479,2.33246 -0.329488,2.33246 -2.035765,0.29218 z M 91.933981,123 l 0.997362,0 0,-2 0,-2 -0.997362,0 -0.997361,0 0,2 0,2 0.997361,0 z m 12.511859,1 c -0.2645,0 -0.25018,-0.60285 0.0318,-1.33967 l 0.51273,-1.33967 -4.28414,0.0897 -4.284132,0.0896 0,-2 0,-2 5.806802,-0.12216 5.80679,-0.12215 1.12487,-1.12785 c 0.61868,-0.62031 1.37171,-1.12695 1.67342,-1.12585 0.3017,0.001 0.64428,1.37155 0.76129,3.04546 l 0.21275,3.04348 -1.70879,0.52753 c -0.93983,0.29015 -2.48812,0.94469 -3.44064,1.45454 -0.95252,0.50985 -1.94826,0.927 -2.21276,0.927 z m -5.925111,-3.27083 0.602566,-0.60417 -0.523834,-1.3125 -0.523834,-1.3125 -0.07879,1.91667 -0.07879,1.91666 0.602576,-0.60416 z m 2.992081,0 0.60257,-0.60417 -0.52383,-1.3125 -0.52384,-1.3125 -0.0787,1.91667 -0.0788,1.91666 0.60258,-0.60416 z m 7.40762,0.27083 0.96606,0 0,-1.5 c 0,-0.825 -0.17639,-1.5 -0.39197,-1.5 -0.21559,0 -0.65031,0.675 -0.96606,1.5 l -0.57409,1.5 0.96606,0 z m -2.35847,-1.33333 0.6649,-0.66667 -0.6649,-0.66667 -0.66491,-0.66666 0,1.33333 0,1.33333 0.66491,-0.66666 z m 10.2562,4.30292 c -0.85025,0.0167 -2.08449,-0.50959 -2.74275,-1.16959 l -1.19683,-1.2 0,-2.6 0,-2.6 1.19683,-1.2 c 0.65826,-0.66 1.8925,-1.18632 2.74275,-1.16959 l 1.54591,0.0304 -1.74539,1.01928 c -0.95996,0.5606 -1.74538,1.41392 -1.74538,1.89627 0,0.48234 0.78542,1.08278 1.74538,1.3343 l 1.74539,0.45733 -1.74539,0.116 -1.74538,0.116 0,1.45031 0,1.45031 1.74538,1.01928 1.74539,1.01928 -1.54591,0.0304 z m 3.98196,0.0304 -1.05471,0 0.30669,-4.25 0.30669,-4.25 2.99208,0 2.99209,0 0.30669,4.25 0.30669,4.25 -1.05471,0 -1.05471,0 0,-4 0,-4 -1.49605,0 -1.49604,0 0,4 0,4 -1.05471,0 z m 19.00722,-0.27235 -4.48813,0 2.24407,-0.43337 c 1.23423,-0.23836 3.25389,-0.23836 4.48812,0 l 2.24407,0.43337 -4.48813,0 z m 7.97889,0.0404 -3.49076,0 1.74538,-0.45733 c 0.95996,-0.25152 2.5308,-0.25152 3.49076,0 l 1.74539,0.45733 -3.49077,0 z m 7.97889,0 -3.49076,0 1.74538,-0.45733 c 0.95996,-0.25152 2.53081,-0.25152 3.49077,0 l 1.74538,0.45733 -3.49077,0 z m 14.9118,0.005 c -0.84958,0.16288 -1.8594,-0.0194 -2.24407,-0.40509 -0.38466,-0.38573 -0.69939,-1.30128 -0.69939,-2.03462 l 0,-1.33333 0.92424,0 0.92422,0 0.45612,1.75 0.45612,1.75 0.11569,-11.25 0.1157,-11.25 2.74274,0.0703 2.74275,0.0703 -1.99473,0.79492 -1.99472,0.79493 1.99472,0.51879 1.99473,0.51879 -1.70927,0.116 -1.70927,0.116 -0.28546,9.73842 -0.28545,9.73841 -1.54467,0.29616 z M 220.21706,124 c -0.75565,0 -1.80781,-0.5625 -2.33811,-1.25 -0.5303,-0.6875 -1.28496,-1.8125 -1.67703,-2.5 l -0.71282,-1.25 1.48177,0 1.48177,0 0.45611,1.75 0.45613,1.75 0.11569,-4.81336 0.11569,-4.81336 3.24143,0.31336 3.24142,0.31336 0.31559,2.75 0.31558,2.75 -1.0636,0 -1.06361,0 0,-2.5 0,-2.5 -1.49604,0 -1.49604,0 0,5 0,5 -1.37393,0 z m -88.88729,-1.25218 -3.98945,-0.0202 2.25569,-0.4349 c 1.24063,-0.23919 3.03588,-0.23011 3.98945,0.0202 l 1.73375,0.45508 -3.98944,-0.0202 z M 179.7018,123 c -0.54855,0 -0.99736,-0.45 -0.99736,-1 0,-0.55 0.44881,-1 0.99736,-1 0.54855,0 0.99736,0.45 0.99736,1 0,0.55 -0.44881,1 -0.99736,1 z m 63.33246,0 -2.4934,0 0,-3.5 0,-3.5 2.4934,0 2.4934,0 0,3.5 0,3.5 -2.4934,0 z m -96.55455,-1 -0.99736,0 1.67578,-1.85662 1.67579,-1.85662 -1.54531,-1.28588 -1.5453,-1.28588 0.51666,-0.51804 0.51667,-0.51803 2.00891,1.82285 2.00891,1.82285 -1.65869,1.83768 C 148.22349,121.17304 147.02826,122 146.47971,122 Z m 10.59194,0 c -0.54855,0 -1.74378,-0.82696 -2.65607,-1.83769 l -1.65869,-1.83768 2.00892,-1.82285 2.0089,-1.82285 0.51668,0.51803 0.51666,0.51804 -1.5453,1.28588 -1.54531,1.28588 1.67578,1.85662 1.67579,1.85662 -0.99736,0 z m 29.62869,-0.21858 -2.94041,-0.0838 0.48167,-0.78142 0.48167,-0.78143 2.94042,0.0838 2.94041,0.0838 -0.48168,0.78142 -0.48166,0.78143 -2.94042,-0.0838 z m -47.0711,-0.81946 c -0.17632,-0.0209 -0.81005,-0.60013 -1.40828,-1.28713 l -1.08771,-1.2491 1.33705,-1.25229 1.33704,-1.25229 1.34632,1.26097 1.34632,1.26098 -1.27508,1.27845 c -0.7013,0.70315 -1.41935,1.26133 -1.59566,1.24041 z m 64.00924,0.038 c -0.54855,0 -0.99736,-0.45 -0.99736,-1 0,-0.55 0.44881,-1 0.99736,-1 0.54855,0 0.99736,0.45 0.99736,1 0,0.55 -0.44881,1 -0.99736,1 z m 7.97889,0 -1.32981,0 0.6649,-0.66667 0.66491,-0.66666 0.66491,0.66666 0.6649,0.66667 -1.32981,0 z m -80.2876,-1.25218 -3.98945,-0.0202 2.25569,-0.4349 c 1.24063,-0.23919 3.03588,-0.23011 3.98945,0.0202 l 1.73375,0.45508 -3.98944,-0.0202 z m 48.37203,0.0202 -3.49076,0 1.74538,-0.45733 c 0.95996,-0.25152 2.5308,-0.25152 3.49076,0 l 1.74539,0.45733 -3.49077,0 z m 6.99854,-0.98658 -2.94041,-0.0838 0.48167,-0.78142 0.48167,-0.78143 2.94042,0.0838 2.94041,0.0838 -0.48168,0.78142 -0.48166,0.78143 -2.94042,-0.0838 z m 42.05162,0.21856 -0.9504,0 -0.44309,-3.02692 -0.44309,-3.02692 1.07791,0.35404 1.07791,0.35404 0.31558,2.67288 0.31559,2.67288 -0.95041,0 z m 5.30605,0 -2.49341,0 0,-0.67126 c 0,-0.36919 0.76026,-1.51356 1.68946,-2.54303 l 1.68947,-1.87178 -1.93881,0.69021 -1.9388,0.69022 1.17966,-1.27996 1.17967,-1.27997 1.69884,0.65364 1.69884,0.65363 -1.88114,2.14871 -1.88115,2.14872 1.74539,-0.63818 1.74538,-0.63818 0,0.96861 0,0.96862 -2.4934,0 z m -54.35621,-1 c -0.54855,0 -0.99736,-0.45 -0.99736,-1 0,-0.55 0.44881,-1 0.99736,-1 0.54855,0 0.99736,0.45 0.99736,1 0,0.55 -0.44881,1 -0.99736,1 z m -48.37203,-1.25218 -3.98945,-0.0202 2.25569,-0.4349 c 1.24063,-0.23919 3.03588,-0.23011 3.98945,0.0202 l 1.73375,0.45508 -3.98944,-0.0202 z m 64.09082,0.0575 -1.56975,0.30537 -0.70424,-1.1425 -0.70424,-1.1425 1.04289,-1.04565 1.0429,-1.04566 1.64602,0.63331 1.64602,0.63331 -0.41493,1.24948 -0.41492,1.24947 -1.56975,0.30537 z m -0.0934,-1.1387 0.6649,-0.66662 -0.6649,-0.66667 -0.66492,-0.66666 0,1.33333 0,1.33333 0.66492,-0.66666 z m -175.20319,-3.66662 -0.997362,0 0,-4 0,-4 -7.978892,0 -7.9788928,0 0,-4 0,-3.999997 0.9973615,0 0.9973616,0 0,3.499996 0,3.500001 2.9920848,0 2.9920849,0 0,-3.500001 0,-3.499996 0.997361,0 0.997362,0 0,3.499996 0,3.500001 5.734829,0.116 5.734828,0.116 -1.745382,0.45733 -1.745383,0.45732 0,3.92667 0,3.92668 -0.997361,0 z m 7.978892,0 -0.997362,0 0,-8 0,-7.999997 0.997362,0 0.997361,0 0,3.499996 0,3.500001 6.981531,0 6.981531,0 0,-3.500001 0,-3.499996 0.997362,0 0.997361,0 0,3.426666 0,3.426681 1.745383,0.45732 1.745383,0.45733 -1.745383,0.116 -1.745383,0.116 0,4 0,4 -0.997361,0 -0.997362,0 0,-4 0,-4 -6.981531,0 -6.981531,0 0,4 0,4 -0.997361,0 z m 23.936677,0 -0.997361,0 0,-8 0,-7.999997 0.997361,0 0.997362,0 0,2.499996 0,2.500001 1.745382,0.0703 1.745383,0.0703 -1.994723,0.79492 -1.994723,0.79493 1.994723,0.51879 1.994723,0.51879 -1.745383,0.116 -1.745382,0.11597 0,4 0,4 -0.997362,0 z m 6.981531,0 -0.997362,0 0,-8 0,-7.999997 0.997362,0 0.997362,0 0,7.999997 0,8 -0.997362,0 z m 2.891656,0 -0.896933,0 0,-8 0,-7.999997 0.937156,0 0.937155,0 0.309547,3.749997 c 0.17025,2.0625 0.15215,5.6625 -0.04022,8 l -0.349767,4.25 -0.896935,0 z m 13.066129,0 -0.997362,0 0,-5.5 0,-5.5 3.989446,0 3.989447,0 0,-2.500001 0,-2.499996 0.997361,0 0.997362,0 0,2.999996 0,3.000001 -3.989446,0 -3.989447,0 0,5 0,5 -0.997361,0 z m 2.992084,0 -0.997361,0 0,-4.5 0,-4.5 7.480211,0 7.480212,0 0,4.5 0,4.5 -0.997361,0 -0.997362,0 0,-4 0,-4 -5.485489,0 -5.485488,0 0,4 0,4 -0.997362,0 z m 15.857361,0 -0.896937,0 0,-4.5 0,-4.5 1.253893,0 1.253883,0 -0.356956,4.5 -0.356956,4.5 -0.896927,0 z m 5.087235,0 -0.997362,0 0,-8 0,-7.999997 0.997362,0 0.997363,0 0,7.999997 0,8 -0.997363,0 z m 2.992085,0 -0.99736,0 0,-4.5 0,-4.5 7.48021,0 7.48021,0 0,4.5 0,4.5 -0.99736,0 -0.99736,0 0,-4 0,-4 -5.48549,0 -5.48549,0 0,4 0,4 -0.99736,0 z m 15.95779,0 -0.99737,0 0,-4.5 0,-4.5 6.58762,0 6.5876,0 -0.36888,-3.878381 -0.36889,-3.878366 1.20638,0.46416 1.20639,0.46416 0.38613,3.664207 0.38612,3.66422 0.16766,-4.309021 0.16766,-4.309016 0.99736,0.61804 0.99736,0.61803 0,3.440976 0,3.440991 8.23543,0 8.23541,0 -0.35696,4.5 -0.35695,4.5 -0.83959,0 -0.83958,0 -0.38178,-4.25 -0.38179,-4.25 -0.17424,4.25 -0.17425,4.25 -0.99736,0 -0.99736,0 0,-4 0,-4 -2.49341,0 -2.4934,0 0,4 0,4 -0.99736,0 -0.99736,0 0,-4 0,-4 -9.97362,0 -9.97361,0 0,4 0,4 -0.99736,0 z m 60.83905,0 -0.99736,0 0,-4.5 0,-4.5 3.98944,0 3.98945,0 0,-7.416667 0,-7.41667 -1.2467,-0.50438 -1.2467,-0.50439 3.7401,-0.079 3.74011,-0.0789 0,8 0,7.999997 2.24406,-0.0703 2.24407,-0.0703 -1.99473,-0.85943 -1.99472,-0.85943 1.74538,-0.0703 1.74538,-0.0702 0,-6.499997 0,-6.5 -1.74538,-0.0703 -1.74538,-0.0703 1.99472,-0.79493 1.99473,-0.79492 -1.99473,-0.51879 -1.99472,-0.51879 2.74274,-0.116 2.74275,-0.116 0,8 0,7.999997 1.74538,0.0703 1.74538,0.0703 -1.99472,0.85943 -1.99472,0.85943 3.34264,0.0703 3.34265,0.0703 -0.7194,-7.249997 -0.71939,-7.25 -1.12721,-0.73469 -1.12721,-0.73475 2.24407,-0.0153 2.24406,-0.0153 0,2.3533 c 0,1.29432 0.28835,5.11932 0.64076,8.5 l 0.64076,6.146697 -4.13152,0 -4.13153,0 0,4 0,4 -0.99736,0 -0.99737,0 0,-4 0,-4 -1.99472,0 -1.99472,0 0,4 0,4 -0.94001,0 -0.94002,0 -0.38178,-4.25 -0.38179,-4.25 -0.17424,4.25 -0.17425,4.25 -0.99736,0 -0.99736,0 0,-4 0,-4 -1.49604,0 -1.49604,0 0,4 0,4 -0.94002,0 -0.94001,0 -0.38178,-4.25 -0.38179,-4.25 -0.17424,4.25 -0.17425,4.25 -0.99736,0 z m 9.70123,-12.22357 c 0.21431,-2.047957 0.21727,-5.647957 0.007,-7.999997 l -0.38347,-4.27643 -0.007,8 -0.007,7.999997 0.38965,-3.72357 z m 23.2117,12.22357 -0.99736,0 0,-4.5 0,-4.5 2.4934,0 2.49341,0 0,-3.500001 0,-3.499996 0.99736,0 0.99736,0 0,-3.91667 0,-3.91667 -1.2467,-0.50438 -1.2467,-0.50439 2.18941,-0.079 2.18942,-0.0789 0.37355,4.75 0.37356,4.75 0.17977,-5.18358 0.17978,-5.18357 -2.74275,-0.41659 -2.74274,-0.41659 3.7401,-0.14983 3.74011,-0.14983 0.009,3.75 c 0.005,2.0625 0.29169,6.1125 0.63761,9 l 0.62893,5.249997 3.85053,0 3.85052,0 0,-3.500001 0,-3.499996 1.99472,0 1.99473,0 0,7.999997 0,8 -9.97362,0 -9.97361,0 0,-4 0,-4 -1.49605,0 -1.49604,0 0,4 0,4 -0.99736,0 z m 33.91029,0 -1.99472,0 0,-8 0,-7.999997 3.49077,0 3.49076,0 0,-3.92668 0,-3.92668 -1.74538,-0.45732 -1.74538,-0.45732 2.74274,-0.116 2.74274,-0.116 0,4.5 0,4.5 1.49605,0 1.49604,0 0,3.499996 0,3.500001 -3.98945,0 -3.98944,0 0,4.5 0,4.5 -1.99473,0 z m -176.283654,-8.13618 -3.241425,0.13618 0,-4 0,-3.999997 0.997361,0 0.997362,0 0,3.430436 0,3.430461 2.244063,0.43337 2.244064,0.43337 -3.241425,0.13618 z m 87.153414,0.13618 -2.91118,0 0.64076,-6.146697 c 0.35242,-3.38068 0.64076,-8.78068 0.64076,-12 l 0,-5.8533 1.14993,0 1.14994,0 -0.47174,11.75 c -0.25946,6.4625 -0.30103,10.062497 -0.0924,7.999997 l 0.37938,-3.749997 0.8324,0 0.83239,0 0.38046,3.999997 0.38045,4 -2.91118,0 z m 9.09198,-0.0703 -2.74274,0.0703 0,-7.926677 0,-7.92668 -1.74539,-0.45732 -1.74538,-0.45732 1.74538,-0.116 1.74539,-0.116 0,-3.5 0,-3.5 0.99736,0 0.99736,0 0,10.42667 0,10.426677 1.74538,0.45732 1.74538,0.45733 -1.99472,0.18628 -1.99472,0.18629 1.99472,0.85943 1.99472,0.85943 -2.74274,0.0703 z m -95.171428,-1.92971 -1.323307,0 0,-3.000001 0,-2.999996 0.884162,0 0.884161,0 0.439146,2.999996 0.439144,3.000001 -1.323306,0 z m 20.369307,-0.18025 -5.734829,0.18025 0,-3.000001 0,-2.999996 0.997362,0 0.997361,0 0,2.4452 0,2.445217 4.737468,0.37454 4.737467,0.37454 -5.734829,0.18025 z m 17.703171,0.18025 -7.48021,0 0,-3.000001 0,-2.999996 0.99736,0 0.99736,0 0,2.499996 0,2.500001 5.48549,0 5.48549,0 0,-2.500001 0,-2.499996 0.99736,0 0.99736,0 0,2.999996 0,3.000001 -7.48021,0 z m 14.2124,-0.116 -5.73483,0.116 0,-3.000001 0,-2.999996 0.99737,0 0.99736,0 0,2.499996 0,2.500001 1.99472,0 1.99472,0 0,-2.500001 0,-2.499996 0.99736,0 0.99737,0 0,2.42667 0,2.426677 1.74538,0.45732 1.74538,0.45733 -5.73483,0.116 z m 17.20449,-0.15636 -4.48813,0 2.24407,-0.43337 c 1.23423,-0.23836 3.25389,-0.23836 4.48812,0 l 2.24407,0.43337 -4.48813,0 z m 3.98985,-6.100487 c -4.38816,-0.0699 -8.03108,-0.12715 -8.09538,-0.12715 -0.0643,0 -0.1906,-3.38116 -0.28065,-7.51369 l -0.16372,-7.51369 8.25912,-0.0785 8.25912,-0.0785 0,7.71934 0,7.71933 -7.97849,-0.12715 z m -3.76414,-1.13791 c 2.08352,-0.0993 4.08191,-0.47493 4.44088,-0.83485 l 0.65267,-0.65439 -1.41292,-0.0153 -1.41294,-0.0153 1.49605,-0.96937 1.49604,-0.96938 -1.49604,-0.0306 -1.49605,-0.0306 1.49605,-0.96937 1.49604,-0.96938 -1.49604,-0.0306 -1.49605,-0.0306 1.49605,-0.96937 1.49604,-0.96938 -1.49604,-0.0306 -1.49605,-0.0306 1.49605,-0.96937 1.49604,-0.96938 -1.49604,-0.0306 -1.49605,-0.0306 1.49605,-0.96937 1.49604,-0.96938 -1.49604,-0.0306 -1.49605,-0.0306 1.37075,-0.87057 1.37074,-0.87057 -4.34447,0.19451 -4.34445,0.19452 -0.0543,6.52622 -0.0543,6.52622 3.78823,-0.18046 z m 0.0652,-0.88924 c -1.25709,0 -2.33671,-0.0225 -2.39913,-0.05 -0.0624,-0.0275 -0.19352,-2.56301 -0.2913,-5.63447 l -0.17778,-5.58446 2.51363,0.13463 2.51363,0.13463 0.0633,5.49983 0.0632,5.49984 -2.28562,0 z m -0.36808,-1.05915 1.52163,-0.22392 0.0772,-4.54085 0.0772,-4.54085 -1.52162,0.22391 -1.52163,0.22392 -0.0772,4.54085 -0.0772,4.54085 1.52162,-0.22391 z m 0.39482,-0.54085 c -0.1747,0 -0.36573,-0.1125 -0.42451,-0.25 -0.0587,-0.1375 -0.20152,-1.93063 -0.31722,-3.98473 l -0.21034,-3.73472 0.53952,0.54095 c 0.29674,0.29752 0.58242,2.09064 0.63485,3.98472 0.0525,1.89408 -0.0476,3.44378 -0.2223,3.44378 z m 6.16521,3 c 0.27427,0 0.49868,-0.225 0.49868,-0.5 0,-0.275 -0.22441,-0.5 -0.49868,-0.5 -0.27427,0 -0.49868,0.225 -0.49868,0.5 0,0.275 0.22441,0.5 0.49868,0.5 z m 3.98945,0 c 0.27427,0 0.49868,-0.225 0.49868,-0.5 0,-0.275 -0.22441,-0.5 -0.49868,-0.5 -0.27428,0 -0.49869,0.225 -0.49869,0.5 0,0.275 0.22441,0.5 0.49869,0.5 z m -1.99473,-1 c 0.27428,0 0.49868,-0.225 0.49868,-0.5 0,-0.275 -0.2244,-0.5 -0.49868,-0.5 -0.27427,0 -0.49868,0.225 -0.49868,0.5 0,0.275 0.22441,0.5 0.49868,0.5 z m -1.99472,-1 c 0.27427,0 0.49868,-0.225 0.49868,-0.5 0,-0.275 -0.22441,-0.5 -0.49868,-0.5 -0.27427,0 -0.49868,0.225 -0.49868,0.5 0,0.275 0.22441,0.5 0.49868,0.5 z m 3.98945,0 c 0.27427,0 0.49868,-0.225 0.49868,-0.5 0,-0.275 -0.22441,-0.5 -0.49868,-0.5 -0.27428,0 -0.49869,0.225 -0.49869,0.5 0,0.275 0.22441,0.5 0.49869,0.5 z m -1.99473,-1 c 0.27428,0 0.49868,-0.225 0.49868,-0.5 0,-0.275 -0.2244,-0.5 -0.49868,-0.5 -0.27427,0 -0.49868,0.225 -0.49868,0.5 0,0.275 0.22441,0.5 0.49868,0.5 z m -1.99472,-1 c 0.27427,0 0.49868,-0.225 0.49868,-0.5 0,-0.275 -0.22441,-0.5 -0.49868,-0.5 -0.27427,0 -0.49868,0.225 -0.49868,0.5 0,0.275 0.22441,0.5 0.49868,0.5 z m 3.98945,0 c 0.27427,0 0.49868,-0.225 0.49868,-0.5 0,-0.275 -0.22441,-0.5 -0.49868,-0.5 -0.27428,0 -0.49869,0.225 -0.49869,0.5 0,0.275 0.22441,0.5 0.49869,0.5 z m -1.99473,-1 c 0.27428,0 0.49868,-0.225 0.49868,-0.5 0,-0.275 -0.2244,-0.5 -0.49868,-0.5 -0.27427,0 -0.49868,0.225 -0.49868,0.5 0,0.275 0.22441,0.5 0.49868,0.5 z m -1.99472,-1 c 0.27427,0 0.49868,-0.225 0.49868,-0.5 0,-0.275 -0.22441,-0.5 -0.49868,-0.5 -0.27427,0 -0.49868,0.225 -0.49868,0.5 0,0.275 0.22441,0.5 0.49868,0.5 z m 3.98945,0 c 0.27427,0 0.49868,-0.225 0.49868,-0.5 0,-0.275 -0.22441,-0.5 -0.49868,-0.5 -0.27428,0 -0.49869,0.225 -0.49869,0.5 0,0.275 0.22441,0.5 0.49869,0.5 z m -1.99473,-1 c 0.27428,0 0.49868,-0.225 0.49868,-0.5 0,-0.275 -0.2244,-0.5 -0.49868,-0.5 -0.27427,0 -0.49868,0.225 -0.49868,0.5 0,0.275 0.22441,0.5 0.49868,0.5 z m -1.99472,-1 c 0.27427,0 0.49868,-0.225 0.49868,-0.5 0,-0.275 -0.22441,-0.5 -0.49868,-0.5 -0.27427,0 -0.49868,0.225 -0.49868,0.5 0,0.275 0.22441,0.5 0.49868,0.5 z m 3.98945,0 c 0.27427,0 0.49868,-0.225 0.49868,-0.5 0,-0.275 -0.22441,-0.5 -0.49868,-0.5 -0.27428,0 -0.49869,0.225 -0.49869,0.5 0,0.275 0.22441,0.5 0.49869,0.5 z m -1.99473,-1 c 0.27428,0 0.49868,-0.225 0.49868,-0.5 0,-0.275 -0.2244,-0.5 -0.49868,-0.5 -0.27427,0 -0.49868,0.225 -0.49868,0.5 0,0.275 0.22441,0.5 0.49868,0.5 z m -1.99472,-1 c 0.27427,0 0.49868,-0.225 0.49868,-0.5 0,-0.275 -0.22441,-0.5 -0.49868,-0.5 -0.27427,0 -0.49868,0.225 -0.49868,0.5 0,0.275 0.22441,0.5 0.49868,0.5 z m 3.98945,0 c 0.27427,0 0.49868,-0.225 0.49868,-0.5 0,-0.275 -0.22441,-0.5 -0.49868,-0.5 -0.27428,0 -0.49869,0.225 -0.49869,0.5 0,0.275 0.22441,0.5 0.49869,0.5 z m -1.99473,-1 c 0.27428,0 0.49868,-0.225 0.49868,-0.5 0,-0.275 -0.2244,-0.5 -0.49868,-0.5 -0.27427,0 -0.49868,0.225 -0.49868,0.5 0,0.275 0.22441,0.5 0.49868,0.5 z m -1.99472,-1 c 0.27427,0 0.49868,-0.225 0.49868,-0.5 0,-0.275 -0.22441,-0.5 -0.49868,-0.5 -0.27427,0 -0.49868,0.225 -0.49868,0.5 0,0.275 0.22441,0.5 0.49868,0.5 z m 3.98945,0 c 0.27427,0 0.49868,-0.225 0.49868,-0.5 0,-0.275 -0.22441,-0.5 -0.49868,-0.5 -0.27428,0 -0.49869,0.225 -0.49869,0.5 0,0.275 0.22441,0.5 0.49869,0.5 z m -1.99473,-1 c 0.27428,0 0.49868,-0.225 0.49868,-0.5 0,-0.275 -0.2244,-0.5 -0.49868,-0.5 -0.27427,0 -0.49868,0.225 -0.49868,0.5 0,0.275 0.22441,0.5 0.49868,0.5 z m 23.438,14 -0.99736,0 0,-4 0,-4 -1.74539,-0.0703 -1.74538,-0.0703 1.99473,-0.79493 1.99472,-0.79492 -1.99472,-0.51879 -1.99473,-0.51879 1.74538,-0.116 1.74539,-0.116 0,-2.5 0,-2.5 0.99736,0 0.99736,0 0,8 0,8 -0.99736,0 z m 6.98153,0 -0.99736,0 0,-3.91667 0,-3.91667 -1.2467,-0.50438 -1.24671,-0.50439 1.24671,-0.079 1.2467,-0.0789 0,-3.5 0,-3.5 0.99736,0 0.99736,0 0,8 0,8 -0.99736,0 z m 2.99208,0 -0.99736,0 0,-8 0,-8 0.99736,0 0.99737,0 0,8 0,8 -0.99737,0 z m 23.93668,0 -0.99736,0 0,-8 0,-8 0.99736,0 0.99736,0 0,8 0,8 -0.99736,0 z m 4.98681,0 -0.99736,0 0,-8 0,-8 0.99736,0 0.99736,0 0,8 0,8 -0.99736,0 z m 2.99208,0 -0.99736,0 0,-8 0,-8 0.99736,0 0.99737,0 0,8 0,8 -0.99737,0 z m -82.28232,-1 c -0.27428,0 -0.49868,-0.225 -0.49868,-0.5 0,-0.275 0.2244,-0.5 0.49868,-0.5 0.27427,0 0.49868,0.225 0.49868,0.5 0,0.275 -0.22441,0.5 -0.49868,0.5 z m -37.804987,-1.07895 -2.897326,0.0789 1.844052,-2.04304 1.844042,-2.04303 -1.853078,0.71297 -1.853078,0.71297 0.750644,-1.21779 0.750655,-1.21778 1.845657,0.29785 1.845667,0.29785 3.551472,-3.44617 3.55147,-3.44617 0,1.11118 0,1.11118 -4.521488,3.99051 -4.521491,3.9905 1.280063,0.51553 1.280064,0.51554 -2.897325,0.079 z m 8.382817,0.0789 c -0.54855,0 -0.99736,-0.45 -0.99736,-1 l 0,-1 -1.554905,0 -1.5549,0 0.626452,-1.01632 0.626463,-1.01631 0.95315,0.59064 0.95316,0.59065 -0.27405,-1.19933 -0.27405,-1.19933 1.2467,-0.45834 1.2467,-0.45833 0,3.08333 0,3.08334 -0.99736,0 z m 27.42744,0 c -0.27427,0 -0.49868,-0.225 -0.49868,-0.5 0,-0.275 0.22441,-0.5 0.49868,-0.5 0.27428,0 0.49868,0.225 0.49868,0.5 0,0.275 -0.2244,0.5 -0.49868,0.5 z m 3.98945,0 c -0.27428,0 -0.49868,-0.225 -0.49868,-0.5 0,-0.275 0.2244,-0.5 0.49868,-0.5 0.27427,0 0.49868,0.225 0.49868,0.5 0,0.275 -0.22441,0.5 -0.49868,0.5 z m -1.99472,-1 c -0.27428,0 -0.49868,-0.225 -0.49868,-0.5 0,-0.275 0.2244,-0.5 0.49868,-0.5 0.27427,0 0.49868,0.225 0.49868,0.5 0,0.275 -0.22441,0.5 -0.49868,0.5 z M 3.9538185,91.786893 1.0615487,91.869293 0.53077388,90.482453 0,89.095623 0.6459213,88.047733 c 0.3552562,-0.57634 1.4048555,-1.07951 2.3324426,-1.11817 l 1.6865215,-0.0703 -1.9947231,-0.91248 -1.99472309,-0.91248 2.45647249,0.23277 2.4564736,0.23277 0.6288514,3.10227 0.6288515,3.10227 -2.8922697,0.0824 z m -0.7849755,-0.78699 0.9973616,0 0,-1.5 0,-1.5 -0.9973616,0 -0.9973615,0 0,1.5 0,1.5 0.9973615,0 z m 9.025323,1 -1.545111,0 0,-3.5 0,-3.5 1.137584,0 1.137585,0 0.407527,3.5 0.407528,3.5 -1.545113,0 z m 7.674812,-0.18303 -2.748414,0.31697 -0.577361,-1.50856 c -0.317549,-0.82971 -0.421053,-2.32234 -0.23001,-3.31697 l 0.347349,-1.80841 2.978425,0 2.978426,0 0,3 0,3 -2.748415,0.31697 z m -0.243669,-0.81697 1.496042,0 0,-2.5 0,-2.5 -1.496042,0 -1.496043,0 0,2.5 0,2.5 1.496043,0 z m 8.357073,0.78437 c -1.472926,0.042 -2.945999,-0.19232 -3.273497,-0.52068 -0.327497,-0.32837 -0.595449,-1.87203 -0.595449,-3.43036 l 0,-2.83333 0.997361,0 0.997362,0 0,3 0,3 0.997361,0 0.997362,0 0,-3 0,-3 0.888244,0 0.888244,0 0.390529,3.35401 0.390529,3.35401 -2.678046,0.0763 z m 6.213786,0.21563 -0.888244,0 -0.396425,-3.40466 -0.396426,-3.40466 3.030053,0.15466 3.030052,0.15466 0.312531,3.25 0.312533,3.25 -1.060554,0 -1.060552,0 0,-3 0,-3 -0.997362,0 -0.997361,0 0,3 0,3 -0.888245,0 z m 6.872414,0 -0.997362,0 0,-4.5 0,-4.5 0.669488,0 c 0.368219,0 1.490251,0.74474 2.493404,1.65498 l 1.823916,1.65499 0,-1.65499 0,-1.65498 0.997362,0 0.997361,0 0,4.5 0,4.5 -0.997361,0 -0.997362,0 0,-1.37756 0,-1.37756 -1.496042,-1.24488 -1.496042,-1.24489 0,2.62244 0,2.62245 -0.997362,0 z m 26.430081,0 -2.375681,0 -0.675179,-1.09536 -0.67518,-1.09535 1.283533,-2.40465 c 0.705943,-1.32255 1.656505,-2.40464 2.11236,-2.40464 0.455855,0 0.828828,0.42344 0.828828,0.94098 0,0.51754 -0.448813,1.2191 -0.997362,1.55902 -0.548549,0.33991 -0.997361,1.26647 -0.997361,2.05901 l 0,1.44099 1.412929,0 1.412928,0 0.445251,-1.25 0.44525,-1.25 0.735097,0.68346 0.735095,0.68347 -0.657413,1.06653 -0.657414,1.06654 -2.375681,0 z m 40.393147,0 c -0.4838,0 -1.14426,-0.42931 -1.4677,-0.95402 l -0.58805,-0.95401 0.63731,-2.54599 0.63733,-2.54598 0.78111,0 0.78111,0 0.63733,2.54598 0.63731,2.54599 -0.58805,0.95401 c -0.32344,0.52471 -0.9839,0.95402 -1.4677,0.95402 z m 21.44327,0 c -0.27427,0 -0.49868,-0.225 -0.49868,-0.5 0,-0.275 0.22441,-0.5 0.49868,-0.5 0.27428,0 0.49868,0.225 0.49868,0.5 0,0.275 -0.2244,0.5 -0.49868,0.5 z m 3.98945,0 c -0.27428,0 -0.49868,-0.225 -0.49868,-0.5 0,-0.275 0.2244,-0.5 0.49868,-0.5 0.27427,0 0.49868,0.225 0.49868,0.5 0,0.275 -0.22441,0.5 -0.49868,0.5 z m -60.340378,-1 -0.997362,0 0,-2.5 0,-2.5 3.740106,0.14983 3.740106,0.14983 -2.742745,0.41659 -2.742744,0.41659 0,1.93358 0,1.93358 -0.997361,0 z m 12.9657,0 -0.997362,0 0,-1.93358 0,-1.93358 -2.742744,-0.41659 -2.742744,-0.41659 3.740105,-0.14983 3.740106,-0.14983 0,2.5 0,2.5 -0.997361,0 z m 5.485488,-3 -3.490765,3.39233 0,-1 c 0,-0.55 1.570844,-2.52655 3.490765,-4.39233 l 3.490766,-3.39234 0,1 c 0,0.55 -1.570845,2.52655 -3.490766,4.39234 z m 39.89447,3 c -0.27428,0 -0.49868,-0.225 -0.49868,-0.5 0,-0.275 0.2244,-0.5 0.49868,-0.5 0.27427,0 0.49868,0.225 0.49868,0.5 0,0.275 -0.22441,0.5 -0.49868,0.5 z m -14.92312,-1.25 -2.4934,0 -1.02832,-1.24233 -1.02831,-1.24232 1.259,-0.95576 c 0.69245,-0.52566 2.33574,-1.01246 3.65175,-1.08176 l 2.39275,-0.126 -1.12232,1.12529 -1.12231,1.12529 0.99228,1.19879 0.99229,1.1988 -2.49341,0 z m -1.14203,-0.75 c 0.15047,0 0.27359,-0.65521 0.27359,-1.45602 l 0,-1.45601 -0.84741,0.52511 -0.84739,0.52511 0.57381,0.9309 c 0.31559,0.512 0.69692,0.93091 0.8474,0.93091 z m 6.99544,0.75 -2.54956,0 1.04844,-1.05121 1.04843,-1.05121 -1.04903,-1.26734 -1.04901,-1.26733 2.31945,0.12046 c 1.2757,0.0663 2.88601,0.55056 3.57845,1.07622 l 1.259,0.95576 -1.02831,1.24232 -1.02832,1.24233 -2.54954,0 z m 1.19818,-0.75 c 0.15047,0 0.5318,-0.41891 0.8474,-0.93091 l 0.57381,-0.9309 -0.8474,-0.52511 -0.84741,-0.52511 0,1.45601 c 0,0.80081 0.12313,1.45602 0.2736,1.45602 z m 5.8768,1 c -0.27427,0 -0.49868,-0.225 -0.49868,-0.5 0,-0.275 0.22441,-0.5 0.49868,-0.5 0.27428,0 0.49868,0.225 0.49868,0.5 0,0.275 -0.2244,0.5 -0.49868,0.5 z m 3.98945,0 c -0.27428,0 -0.49868,-0.225 -0.49868,-0.5 0,-0.275 0.2244,-0.5 0.49868,-0.5 0.27427,0 0.49868,0.225 0.49868,0.5 0,0.275 -0.22441,0.5 -0.49868,0.5 z m -1.99472,-1 c -0.27428,0 -0.49868,-0.225 -0.49868,-0.5 0,-0.275 0.2244,-0.5 0.49868,-0.5 0.27427,0 0.49868,0.225 0.49868,0.5 0,0.275 -0.22441,0.5 -0.49868,0.5 z m -1.99473,-1 c -0.27427,0 -0.49868,-0.225 -0.49868,-0.5 0,-0.275 0.22441,-0.5 0.49868,-0.5 0.27428,0 0.49868,0.225 0.49868,0.5 0,0.275 -0.2244,0.5 -0.49868,0.5 z m 3.98945,0 c -0.27428,0 -0.49868,-0.225 -0.49868,-0.5 0,-0.275 0.2244,-0.5 0.49868,-0.5 0.27427,0 0.49868,0.225 0.49868,0.5 0,0.275 -0.22441,0.5 -0.49868,0.5 z m 93.50264,-0.14984 -3.7401,-0.14983 2.74274,-0.41659 2.74275,-0.41659 0,-3.43358 0,-3.43357 0.99736,0 0.99736,0 0,4 0,4 -3.74011,-0.14984 z m 7.9789,0.0709 -3.74011,-0.079 1.2467,-0.50438 1.24671,-0.50439 0,-3.41666 0,-3.41667 0.93715,0 0.93716,0 0.39122,3.75 0.39123,3.75 0.16766,-3.75 0.16766,-3.75 0.99736,0 0.99736,0 0,4 0,4 -3.7401,-0.0789 z m 6.98153,0.009 -2.74275,-0.0703 1.99473,-0.79492 1.99472,-0.79492 -1.99472,-0.51879 -1.99473,-0.51879 1.74539,-0.116 1.74538,-0.11604 0,-2.5 0,-2.5 0.99736,0 0.99736,0 0,4 0,4 -2.74274,-0.0703 z m -189.748041,-1.16176 -3.490765,0 1.745382,-0.45732 c 0.959961,-0.25153 2.530805,-0.25153 3.490766,0 l 1.745382,0.45732 -3.490765,0 z m 7.480212,0.037 -2.992085,-0.037 1.764364,-0.46099 c 0.9704,-0.25354 2.316838,-0.23686 2.992085,0.0371 l 1.22772,0.49805 -2.992084,-0.037 z m 71.810039,0.19496 c -0.27428,0 -0.49868,-0.225 -0.49868,-0.5 0,-0.275 0.2244,-0.5 0.49868,-0.5 0.27427,0 0.49868,0.225 0.49868,0.5 0,0.275 -0.22441,0.5 -0.49868,0.5 z m -42.387874,-1 -0.997361,0 0,-2.5 0,-2.5 0.997361,0 0.997362,0 0,2.5 0,2.5 -0.997362,0 z m 7.978893,0 -0.997362,0 0,-2.5 0,-2.5 0.997362,0 0.997364,0 0,2.5 0,2.5 -0.997364,0 z m 32.414251,0 c -0.27427,0 -0.49868,-0.225 -0.49868,-0.5 0,-0.275 0.22441,-0.5 0.49868,-0.5 0.27428,0 0.49868,0.225 0.49868,0.5 0,0.275 -0.2244,0.5 -0.49868,0.5 z m 3.98945,0 c -0.27428,0 -0.49868,-0.225 -0.49868,-0.5 0,-0.275 0.2244,-0.5 0.49868,-0.5 0.27427,0 0.49868,0.225 0.49868,0.5 0,0.275 -0.22441,0.5 -0.49868,0.5 z m 68.06993,-0.0789 -2.24407,-0.079 1.2467,-0.50439 1.24671,-0.50439 0,-2.41666 0,-2.41666 0.99736,0 0.99736,0 0,3 0,3 -2.24406,-0.0789 z m 23.93667,0 -2.24406,-0.079 1.2467,-0.50439 1.2467,-0.50439 0,-2.41666 0,-2.41666 0.99736,0 0.99737,0 0,3 0,3 -2.24407,-0.0789 z m -172.827402,-0.92105 -2.34117,0 -0.616403,-1 -0.616403,-1 0.616403,-1 0.616403,-1 1.819539,0 1.819538,0 0.521632,2 0.521632,2 -2.341171,0 z m -0.796623,-1.33334 0.664908,-0.66666 -0.664908,-0.66667 -0.664908,-0.66667 0,1.33334 0,1.33333 0.664908,-0.66667 z m 8.072349,1.1387 -1.569745,0.30537 -0.704241,-1.1425 -0.704241,-1.1425 1.042891,-1.04565 1.042892,-1.04565 1.646021,0.63331 1.646021,0.63331 -0.414927,1.24947 -0.414927,1.24948 -1.569744,0.30536 z m -0.09345,-1.1387 0.664907,-0.66666 -0.664907,-0.66667 -0.664908,-0.66667 0,1.33334 0,1.33333 0.664908,-0.66667 z m 71.643809,1.33334 c -0.27428,0 -0.49868,-0.225 -0.49868,-0.5 0,-0.275 0.2244,-0.5 0.49868,-0.5 0.27427,0 0.49868,0.225 0.49868,0.5 0,0.275 -0.22441,0.5 -0.49868,0.5 z m -129.4025694,-1 -0.99736149,0 1.24160539,-1.5 c 0.6828825,-0.825 1.6904171,-1.5 2.238966,-1.5 l 0.9973615,0 -1.2416044,1.5 c -0.6828835,0.825 -1.6904181,1.5 -2.238967,1.5 z m 8.9762554,0 -0.9973632,0 1.2416052,-1.5 c 0.682883,-0.825 1.690418,-1.5 2.238966,-1.5 l 0.997362,0 -1.241604,1.5 c -0.682883,0.825 -1.690418,1.5 -2.238966,1.5 z m 6.98153,0 -0.997361,0 1.241604,-1.5 c 0.682883,-0.825 1.690417,-1.5 2.238966,-1.5 l 0.997362,0 -1.241605,1.5 c -0.682882,0.825 -1.690417,1.5 -2.238966,1.5 z m 7.978893,0 -0.997362,0 1.241605,-1.5 c 0.682882,-0.825 1.690417,-1.5 2.238966,-1.5 l 0.997361,0 -1.241604,1.5 c -0.682883,0.825 -1.690417,1.5 -2.238966,1.5 z m 9.237507,-0.21858 -2.940416,-0.0838 0.481671,-0.78142 0.481671,-0.78143 2.940415,0.0838 2.940416,0.0838 -0.481671,0.78143 -0.481671,0.78142 -2.940415,-0.0838 z m 31.898559,0.21858 c -0.548549,0 -0.997361,-0.45 -0.997361,-1 0,-0.55 0.448812,-1 0.997361,-1 0.548549,0 0.997362,0.45 0.997362,1 0,0.55 -0.448813,1 -0.997362,1 z m 40.891825,0 c -0.54855,0 -0.99736,-0.45 -0.99736,-1 0,-0.55 0.44881,-1 0.99736,-1 0.54855,0 0.99736,0.45 0.99736,1 0,0.55 -0.44881,1 -0.99736,1 z m 21.44327,0 c -0.27427,0 -0.49868,-0.225 -0.49868,-0.5 0,-0.275 0.22441,-0.5 0.49868,-0.5 0.27428,0 0.49868,0.225 0.49868,0.5 0,0.275 -0.2244,0.5 -0.49868,0.5 z m 3.98945,0 c -0.27428,0 -0.49868,-0.225 -0.49868,-0.5 0,-0.275 0.2244,-0.5 0.49868,-0.5 0.27427,0 0.49868,0.225 0.49868,0.5 0,0.275 -0.22441,0.5 -0.49868,0.5 z m -1.99472,-1 c -0.27428,0 -0.49868,-0.225 -0.49868,-0.5 0,-0.275 0.2244,-0.5 0.49868,-0.5 0.27427,0 0.49868,0.225 0.49868,0.5 0,0.275 -0.22441,0.5 -0.49868,0.5 z m -88.249492,-1.21858 -2.940415,-0.0838 0.48167,-0.78142 0.481671,-0.78143 2.940416,0.0838 2.940415,0.0838 -0.481671,0.78143 -0.481671,0.78142 -2.940415,-0.0838 z m 86.254762,0.21858 c -0.27427,0 -0.49868,-0.225 -0.49868,-0.5 0,-0.275 0.22441,-0.5 0.49868,-0.5 0.27428,0 0.49868,0.225 0.49868,0.5 0,0.275 -0.2244,0.5 -0.49868,0.5 z m 3.98945,0 c -0.27428,0 -0.49868,-0.225 -0.49868,-0.5 0,-0.275 0.2244,-0.5 0.49868,-0.5 0.27427,0 0.49868,0.225 0.49868,0.5 0,0.275 -0.22441,0.5 -0.49868,0.5 z m -1.99472,-1 c -0.27428,0 -0.49868,-0.225 -0.49868,-0.5 0,-0.275 0.2244,-0.5 0.49868,-0.5 0.27427,0 0.49868,0.225 0.49868,0.5 0,0.275 -0.22441,0.5 -0.49868,0.5 z m 62.88364,-2.06339 -2.04459,-0.0634 2.4934,-1.07188 2.49341,-1.07187 -2.49341,-0.65403 -2.4934,-0.65404 -0.31253,-3.2107 -0.31254,-3.2107 1.06056,0 1.06055,0 0,3 0,3 1.49605,0 1.49604,0 0,-3 0,-3 0.99736,0 0.99736,0 0,3.8 0,3.8 -1.19683,1.2 -1.19684,1.2 -2.04459,-0.0634 z m -190.6511408,-1.24048 -2.88686699,0.19614 2.41070759,-0.72165 2.4107077,-0.72165 -2.6600481,-1.74754 -2.66004801,-1.74754 0,-2.3545 0,-2.35451 1.44812911,-1.20502 1.44813,-1.20502 1.7106476,0.33258 1.7106476,0.33258 0.4941807,1.5 0.4941797,1.5 -1.6145448,-1.33609 -1.6145459,-1.33609 -1.0410509,0.6451 -1.04105,0.64511 0,2.38197 0,2.38196 1.04105,0.64511 1.0410509,0.64511 1.3919936,-1.15831 1.3919926,-1.15831 -0.2941977,2.82222 -0.2941977,2.82222 -2.886867,0.19613 z m 246.9522008,0.0377 -1.49604,0.25098 -2.09947,-1.74243 c -1.1547,-0.95833 -2.35387,-2.47509 -2.66481,-3.37057 l -0.56533,-1.62814 1.11889,-1.12186 1.1189,-1.12185 -1.80464,0 -1.80462,0 0.40752,3.5 0.40753,3.5 -1.54511,6.2e-4 -1.54511,6.2e-4 0.3598,-5.25062 0.35981,-5.25062 -2.17026,1.96402 -2.17026,1.96403 1.81045,0.71569 1.81046,0.71568 -1.99473,0.14058 -1.99472,0.14057 1.99472,0.85943 1.99473,0.85942 -1.74539,0.0703 -1.74538,0.0703 0,1.5 0,1.5 -0.99736,0 -0.99736,0 0,-1.5 0,-1.5 -1.74539,-0.0703 -1.74538,-0.0703 1.99472,-0.79493 1.99473,-0.79492 -1.99473,-0.51879 -1.99472,-0.51879 1.89997,-0.116 1.89996,-0.116 -1.80521,-2 -1.8052,-2 0.95247,0 c 0.52386,0 1.44306,0.49189 2.04269,1.09309 l 1.09021,1.0931 2.53555,-1.66576 2.53557,-1.66575 2.8072,0.32266 2.80721,0.32266 0.28532,2.5 c 0.15692,1.375 0.27519,3.49992 0.26282,4.72204 l -0.0225,2.22205 1.98124,1.06314 1.98125,1.06313 0,-2.95185 0,-2.95185 -1.2467,-0.50438 -1.2467,-0.50439 1.2467,-0.079 1.24674,-0.0789 0,-2.03139 0,-2.03138 1.56309,-0.6014 1.56307,-0.6014 1.17967,1.27996 1.17966,1.27996 -1.74538,-0.61579 -1.74539,-0.61579 0,1.96861 0,1.96862 1.24671,0.0153 1.2467,0.0153 -1.15671,0.73793 -1.1567,0.73794 -0.33934,2.9882 -0.33934,2.9882 -1.49604,0.25098 z m -6.98153,-9.73387 c 0.54855,0 0.99736,-0.45 0.99736,-1 0,-0.55 -0.44881,-1 -0.99736,-1 -0.54855,0 -0.99736,0.45 -0.99736,1 0,0.55 0.44881,1 0.99736,1 z m -183.59267,8.73276 -2.415259,0.23277 1.972477,-0.82572 1.972478,-0.82573 -2.282343,-1.2247 -2.282342,-1.22471 0.309865,-2.17212 0.309865,-2.17212 1.851322,-0.354 1.851322,-0.35399 1.140763,1.20617 1.140762,1.20617 -2.244064,-0.67978 -2.244063,-0.67978 0,2.13478 0,2.13477 1.829124,-0.58208 1.829125,-0.58207 -0.161887,2.26469 -0.161886,2.26469 -2.415259,0.23276 z m -47.915753,-0.94856 c -1.472926,0.042 -2.9459995,-0.19232 -3.2734971,-0.52068 -0.3274966,-0.32837 -0.5954488,-1.87203 -0.5954488,-3.43036 l 0,-2.83333 0.9973616,0 0.9973613,0 0,3 0,3 0.997362,0 0.997361,0 0,-3 0,-3 0.888244,0 0.888245,0 0.390528,3.35401 0.390529,3.35401 -2.678046,0.0763 z m 7.510548,0.21563 -2.465845,0 -0.551728,-1.44159 c -0.303451,-0.79287 -0.395422,-2.25537 -0.204379,-3.25 l 0.347349,-1.80841 2.895312,0 2.895312,0 0.415568,1.25 0.415567,1.25 -2.576518,0 -2.576517,0 0,1.6084 0,1.60841 2.576972,-0.64849 2.576972,-0.64849 -0.64111,1.04008 -0.64111,1.04009 -2.465845,0 z m 0.0071,-5.07895 1.911578,0.0789 -0.602572,-0.60417 -0.602573,-0.60417 -1.309037,0.52522 -1.309037,0.52522 1.91161,0.079 z m 8.3483,4.86594 -2.89227,0.0824 -0.530774,-1.38684 -0.530775,-1.38683 0.645921,-1.04789 c 0.355258,-0.57634 1.404856,-1.07951 2.332443,-1.11817 l 1.686491,-0.0703 -1.994723,-0.91248 -1.994724,-0.91248 2.456474,0.23277 2.456473,0.23277 0.628851,3.10227 0.628851,3.10227 -2.892269,0.0824 z m -0.785007,-0.78699 0.997362,0 0,-1.5 0,-1.5 -0.997362,0 -0.997361,0 0,1.5 0,1.5 0.997361,0 z m 8.763868,0.78699 -2.89227,0.0824 -0.530773,-1.38684 -0.530775,-1.38683 0.645921,-1.04789 c 0.355257,-0.57634 1.404856,-1.07951 2.332443,-1.11817 l 1.686521,-0.0703 -1.994723,-0.91248 -1.994723,-0.91248 2.456473,0.23277 2.456473,0.23277 0.628851,3.10227 0.628852,3.10227 -2.89227,0.0824 z m -0.784975,-0.78699 0.997361,0 0,-1.5 0,-1.5 -0.997361,0 -0.997362,0 0,1.5 0,1.5 0.997362,0 z m 8.763868,0.78699 -2.89227,0.0824 -0.530774,-1.38684 -0.530775,-1.38683 0.645921,-1.04789 c 0.355258,-0.57634 1.404856,-1.07951 2.332443,-1.11817 l 1.686521,-0.0703 -1.994723,-0.91248 -1.994723,-0.91248 2.456474,0.23277 2.456472,0.23277 0.628852,3.10227 0.628851,3.10227 -2.892269,0.0824 z m -0.784976,-0.78699 0.997362,0 0,-1.5 0,-1.5 -0.997362,0 -0.997361,0 0,1.5 0,1.5 0.997361,0 z m 8.763868,0.78699 -2.89227,0.0824 -0.530774,-1.38684 -0.530774,-1.38683 0.645921,-1.04789 c 0.355257,-0.57634 1.404855,-1.07951 2.332442,-1.11817 l 1.686522,-0.0703 -1.994723,-0.91248 -1.994723,-0.91248 2.456473,0.23277 2.456473,0.23277 0.628851,3.10227 0.628852,3.10227 -2.89227,0.0824 z m -0.784975,-0.78699 0.997361,0 0,-1.5 0,-1.5 -0.997361,0 -0.997362,0 0,1.5 0,1.5 0.997362,0 z m 16.366302,1 -2.465845,0 -0.551729,-1.44159 c -0.303451,-0.79287 -0.395422,-2.25537 -0.204379,-3.25 l 0.347349,-1.80841 2.895313,0 2.895312,0 0.415567,1.25 0.415568,1.25 -2.576518,0 -2.576517,0 0,1.6084 0,1.60841 2.576972,-0.64849 2.576971,-0.64849 -0.64111,1.04008 -0.64111,1.04009 -2.465844,0 z m 0.0071,-5.07895 1.911578,0.0789 -0.602572,-0.60417 -0.602573,-0.60417 -1.309037,0.52522 -1.309037,0.52522 1.91161,0.079 z m 7.971811,5.07895 -2.465845,0 -0.551728,-1.44159 c -0.303451,-0.79287 -0.395422,-2.25537 -0.204379,-3.25 l 0.347349,-1.80841 2.895312,0 2.895312,0 0.415568,1.25 0.415567,1.25 -2.576518,0 -2.576517,0 0,1.6084 0,1.60841 2.576972,-0.64849 2.576972,-0.64849 -0.64111,1.04008 -0.64111,1.04009 -2.465845,0 z m 0.0071,-5.07895 1.911578,0.0789 -0.602572,-0.60417 -0.602572,-0.60417 -1.309038,0.52522 -1.309037,0.52522 1.91161,0.079 z m 7.971813,5.07895 -2.465846,0 -0.551731,-1.44159 c -0.303447,-0.79287 -0.395424,-2.25537 -0.204379,-3.25 l 0.347351,-1.80841 2.895311,0 2.89531,0 0.415571,1.25 0.415571,1.25 -2.576524,0 -2.576514,0 0,1.6084 0,1.60841 2.576972,-0.64849 2.576973,-0.64849 -0.641114,1.04008 -0.641104,1.04009 -2.465847,0 z m 0.007,-5.07895 1.911573,0.0789 -0.602566,-0.60417 -0.602576,-0.60417 -1.309037,0.52522 -1.309037,0.52522 1.911613,0.079 z m 8.609724,5.07895 -1.545113,0 0,-3.5 0,-3.5 1.137581,0 1.13759,0 0.407522,3.5 0.407532,3.5 -1.545112,0 z m 7.978896,0 -1.545114,0 0,-3.5 0,-3.5 1.137585,0 1.137591,0 0.40752,3.5 0.40753,3.5 -1.545112,0 z m 7.978892,0 -1.54511,0 0,-3.5 0,-3.5 1.13758,0 1.13759,0 0.40752,3.5 0.40753,3.5 -1.54511,0 z m 4.93774,0 -0.99736,0 0,-2.84502 0,-2.84501 1.83284,-1.66308 1.83283,-1.66309 1.65793,1.83684 1.65793,1.83684 0,2.67126 0,2.67126 -0.99736,0 -0.99737,0 0,-1.5 0,-1.5 -1.49604,0 -1.49604,0 0,1.5 0,1.5 -0.99736,0 z m 2.4934,-4 1.66227,0 -0.35739,-1.075 c -0.19656,-0.59125 -0.78376,-1.075 -1.30488,-1.075 -0.52112,0 -1.10832,0.48375 -1.30488,1.075 l -0.35739,1.075 1.66227,0 z m 5.48549,4 -0.99736,0 0,-2.87756 0,-2.87756 1.57964,-1.31445 1.57965,-1.31446 1.66177,1.04286 1.66179,1.04286 0.31253,3.14915 0.31254,3.14916 -1.06056,0 -1.06055,0 0,-1.5 0,-1.5 -1.49605,0 -1.49604,0 0,1.5 0,1.5 -0.99736,0 z m 2.4934,-4 1.66228,0 -0.3574,-1.075 c -0.19656,-0.59125 -0.78375,-1.075 -1.30488,-1.075 -0.52112,0 -1.10831,0.48375 -1.30487,1.075 l -0.3574,1.075 1.66227,0 z m 8.22824,4 -3.24143,0 0,-4 0,-4 3.24143,0 3.24142,0 0,1.06738 0,1.06739 -1.99472,-0.63477 -1.99472,-0.63478 0,0.99406 0,0.99407 1.74538,0.45732 1.74538,0.45732 -1.74538,0.116 -1.74538,0.11601 0,1.56738 0,1.56739 1.99472,-0.63477 1.99472,-0.63478 0,1.06739 0,1.06739 -3.24142,0 z m 9.70471,-0.16372 -4.50767,-0.0907 -0.6315,-1.02449 -0.6315,-1.02448 1.61371,-1.1831 1.6137,-1.18309 -1.13348,-1.13648 -1.13348,-1.13649 3.54106,0.27961 3.54107,0.27961 1.12634,-1.80833 1.12634,-1.80833 2.23561,-1.7e-4 2.23562,-1.7e-4 0,4.99991 0,4.99991 -1.24671,2.6e-4 -1.2467,2.7e-4 0,-2.5 0,-2.5 -0.99736,0 -0.99736,0 0,2.4635 0,2.4635 -4.50769,-0.0907 z m -2.80629,-1.16962 0.6649,-0.66666 -0.6649,-0.66667 -0.66491,-0.66667 0,1.33334 0,1.33333 0.66491,-0.66667 z m 4.38076,0.33334 0.9385,0 0,-1.46862 0,-1.46861 -1.49032,0.5734 -1.49031,0.5734 0.55181,0.89521 c 0.3035,0.49237 0.97414,0.89522 1.49032,0.89522 z m -1.38868,-3.33334 0.6649,-0.66666 -0.6649,-0.66667 -0.66491,-0.66667 0,1.33334 0,1.33333 0.66491,-0.66667 z m 5.31926,-1.66666 0.99736,0 0,-1.55902 0,-1.55902 -0.99736,0.61804 c -0.54855,0.33991 -0.99736,1.04147 -0.99736,1.55901 0,0.51754 0.44881,0.94099 0.99736,0.94099 z m 8.72124,5.81697 -2.74841,0.31697 -0.57736,-1.50856 c -0.31755,-0.82971 -0.42106,-2.32234 -0.23001,-3.31697 l 0.34735,-1.80841 2.97843,0 2.97842,0 0,3 0,3 -2.74842,0.31697 z m -0.24367,-0.81697 1.49605,0 0,-2.5 0,-2.5 -1.49605,0 -1.49604,0 0,2.5 0,2.5 1.49604,0 z m 8.22256,0.81697 -2.74841,0.31697 -0.57736,-1.50856 c -0.31755,-0.82971 -0.42106,-2.32234 -0.23001,-3.31697 l 0.34735,-1.80841 2.97843,0 2.97842,0 0,3 0,3 -2.74842,0.31697 z m -0.24366,-0.81697 1.49604,0 0,-2.5 0,-2.5 -1.49604,0 -1.49605,0 0,2.5 0,2.5 1.49605,0 z m 8.22255,0.81697 -2.74841,0.31697 -0.57736,-1.50856 c -0.31755,-0.82971 -0.42105,-2.32234 -0.23001,-3.31697 l 0.34735,-1.80841 2.97843,0 2.97842,0 0,3 0,3 -2.74842,0.31697 z m -0.24366,-0.81697 1.49604,0 0,-2.5 0,-2.5 -1.49604,0 -1.49604,0 0,2.5 0,2.5 1.49604,0 z m 8.35707,0.78437 c -1.47292,0.042 -2.946,-0.19232 -3.2735,-0.52068 -0.32749,-0.32837 -0.59544,-1.87203 -0.59544,-3.43036 l 0,-2.83333 0.99736,0 0.99736,0 0,3 0,3 0.99736,0 0.99736,0 0,-3 0,-3 0.88824,0 0.88825,0 0.39053,3.35401 0.39053,3.35401 -2.67805,0.0763 z m 7.97889,0 c -1.47292,0.042 -2.94599,-0.19232 -3.2735,-0.52068 -0.32749,-0.32837 -0.59544,-1.87203 -0.59544,-3.43036 l 0,-2.83333 0.99736,0 0.99736,0 0,3 0,3 0.99736,0 0.99736,0 0,-3 0,-3 0.88824,0 0.88825,0 0.39053,3.35401 0.39053,3.35401 -2.67805,0.0763 z m 15.82327,0.0326 -2.74841,0.31697 -0.56738,-1.4825 c -0.31207,-0.81537 -0.42172,-2.75801 -0.24367,-4.31697 l 0.32371,-2.83447 2.99209,0 2.99208,0 0,4 0,4 -2.74842,0.31697 z m -0.24366,-0.81697 1.49604,0 0,-3.5 0,-3.5 -1.49604,0 -1.49604,0 0,3.5 0,3.5 1.49604,0 z m 8.44025,0.79591 -2.53073,0.2959 -0.71069,-0.71257 -0.7107,-0.71258 0,-3.83333 0,-3.83333 0.99736,0 0.99736,0 0,4 0,4 1.49604,0 1.49604,0 0,-4 0,-4 1.05471,0 1.05471,0 -0.30669,4.25 -0.30668,4.25 -2.53073,0.29591 z m 7.80857,0.14465 c -0.16006,-0.0327 -1.07646,-0.85794 -2.03642,-1.83389 l -1.74538,-1.77445 0,-1.94387 0,-1.94387 2.02191,-1.7358 2.02192,-1.7358 2.18479,2.04083 2.1848,2.04084 0.77535,-2.10152 0.77535,-2.10152 1.66748,0.32424 1.66749,0.32425 0.49418,1.5 0.49417,1.5 -1.53141,-1.26691 -1.5314,-1.26691 -0.0915,4.57307 -0.0916,4.57307 2.08434,-0.6633 2.08435,-0.66329 -0.68244,1.10713 -0.68243,1.10714 -2.9083,0 -2.90828,0 0.58002,-2.90779 0.58003,-2.90779 -2.03544,-1.09221 c -1.11948,-0.60072 -2.73815,-1.09221 -3.59704,-1.09221 l -1.56161,0 0,2.625 0,2.625 3.19748,-0.64119 3.19747,-0.64119 -2.15841,2.01619 c -1.18713,1.1089 -2.28938,1.98944 -2.44946,1.95675 z m -200.506275,-7.94056 -0.997361,0 1.241604,-1.5 c 0.682883,-0.825 1.690417,-1.5 2.238966,-1.5 l 0.997362,0 -1.241605,1.5 c -0.682882,0.825 -1.690417,1.5 -2.238966,1.5 z m 8.740471,-0.25 c -1.381632,0 -2.512058,-0.11365 -2.512058,-0.25256 0,-0.13891 0.613671,-0.7632 1.363713,-1.38733 l 1.363714,-1.13478 1.148344,1.38733 1.148346,1.38734 -2.512059,0 z m 16.682054,0.25 c -0.548549,0 -1.556084,-0.675 -2.238966,-1.5 l -1.241605,-1.5 0.997362,0 c 0.548549,0 1.556083,0.675 2.238966,1.5 l 1.241604,1.5 -0.997361,0 z m 7.235969,0 c -0.758076,0 -1.657661,-0.45318 -1.999077,-1.00707 l -0.620757,-1.00706 1.511497,-0.58155 1.511496,-0.58155 1.061391,0.65771 1.061391,0.65771 -0.573811,0.9309 c -0.315596,0.512 -1.194055,0.93091 -1.95213,0.93091 z m 0,-1 c 0.274274,0 0.49868,-0.225 0.49868,-0.5 0,-0.275 -0.224406,-0.5 -0.49868,-0.5 -0.274275,0 -0.498681,0.225 -0.498681,0.5 0,0.275 0.224406,0.5 0.498681,0.5 z m 15.976439,0.75 c -1.381632,0 -2.512058,-0.11365 -2.512058,-0.25256 0,-0.13891 0.613671,-0.7632 1.363713,-1.38733 l 1.363714,-1.13478 1.148344,1.38733 1.148346,1.38734 -2.512059,0 z m 16.682055,0.25 c -0.548549,0 -1.556084,-0.675 -2.238967,-1.5 l -1.241606,-1.5 0.997362,0 c 0.548549,0 1.556083,0.675 2.238967,1.5 l 1.241605,1.5 -0.997361,0 z m 15.713545,-0.33334 -3.087078,0 1.54354,-1.54762 1.543538,-1.54762 1.543532,1.54762 1.54354,1.54762 -3.087072,0 z m 8.223132,0.33334 c -0.54854,0 -1.55608,-0.675 -2.23896,-1.5 l -1.24161,-1.5 0.99736,0 c 0.54855,0 1.55609,0.675 2.23897,1.5 l 1.24161,1.5 -0.99737,0 z m 47.14908,-0.25 c -1.38162,0 -2.51205,-0.11365 -2.51205,-0.25256 0,-0.13891 0.61367,-0.7632 1.36371,-1.38733 l 1.36371,-1.13478 1.14836,1.38733 1.14834,1.38734 -2.51207,0 z m 16.68206,0.25 c -0.54855,0 -1.55608,-0.675 -2.23896,-1.5 l -1.24161,-1.5 0.99736,0 c 0.54855,0 1.55609,0.675 2.23897,1.5 l 1.2416,1.5 -0.99736,0 z m 6.73729,-0.33334 -3.08707,0 1.54353,-1.54762 1.54354,-1.54762 1.54354,1.54762 1.54353,1.54762 -3.08707,0 z m 9.2205,0.33334 c -0.54855,0 -1.55609,-0.675 -2.23897,-1.5 l -1.2416,-1.5 0.99736,0 c 0.54855,0 1.55608,0.675 2.23896,1.5 l 1.24161,1.5 -0.99736,0 z m -178.7719671,-1 -1.3298162,0 0.6649082,-0.66667 0.664908,-0.66667 0.6649067,0.66667 0.6649084,0.66667 -1.3298151,0 z m 3.9894461,0 -1.329815,0 0.664907,-0.66667 0.664908,-0.66667 0.664908,0.66667 0.664907,0.66667 -1.329815,0 z m 19.947231,0 -1.329815,0 0.664907,-0.66667 0.664908,-0.66667 0.664908,0.66667 0.664907,0.66667 -1.329815,0 z m 3.989446,0 -1.329815,0 0.664907,-0.66667 0.664908,-0.66667 0.664908,0.66667 0.664907,0.66667 -1.329815,0 z m 35.905016,0 -1.329815,0 0.664907,-0.66667 0.664908,-0.66667 0.664908,0.66667 0.664907,0.66667 -1.329815,0 z m 4.986808,0 -1.329815,0 0.664907,-0.66667 0.664908,-0.66667 0.664908,0.66667 0.664907,0.66667 -1.329815,0 z m 11.968338,0 -1.329812,0 0.664901,-0.66667 0.664911,-0.66667 0.664911,0.66667 0.664901,0.66667 -1.329812,0 z m 3.989446,0 -1.329812,0 0.664901,-0.66667 0.664911,-0.66667 0.664912,0.66667 0.664901,0.66667 -1.329813,0 z m 29.422166,0 c -0.75807,0 -1.65766,-0.45318 -1.99908,-1.00707 l -0.62075,-1.00706 1.5115,-0.58155 1.5115,-0.58155 1.06138,0.65771 1.06139,0.65771 -0.57381,0.9309 c -0.3156,0.512 -1.19405,0.93091 -1.95213,0.93091 z m 0,-1 c 0.27428,0 0.49868,-0.225 0.49868,-0.5 0,-0.275 -0.2244,-0.5 -0.49868,-0.5 -0.27427,0 -0.49868,0.225 -0.49868,0.5 0,0.275 0.22441,0.5 0.49868,0.5 z m 6.23861,1 -0.99736,0 1.2416,-1.5 c 0.68289,-0.825 1.69042,-1.5 2.23897,-1.5 l 0.99736,0 -1.2416,1.5 c -0.68289,0.825 -1.69042,1.5 -2.23897,1.5 z m 31.16245,0 -1.32981,0 0.6649,-0.66667 0.66491,-0.66667 0.66491,0.66667 0.6649,0.66667 -1.32981,0 z m 4.98681,0 -1.32981,0 0.6649,-0.66667 0.66491,-0.66667 0.66491,0.66667 0.6649,0.66667 -1.32981,0 z m 26.92876,0 -1.32981,0 0.6649,-0.66667 0.66491,-0.66667 0.66491,0.66667 0.6649,0.66667 -1.32981,0 z m 4.98681,0 -1.32981,0 0.6649,-0.66667 0.66491,-0.66667 0.66491,0.66667 0.6649,0.66667 -1.32981,0 z m -84.77573,-1 -1.32981,0 0.6649,-0.66667 0.66491,-0.66667 0.66491,0.66667 0.6649,0.66667 -1.32981,0 z m 4.98681,0 -1.32982,0 0.6649,-0.66667 0.66492,-0.66667 0.66491,0.66667 0.6649,0.66667 -1.32981,0 z m 82.781,0 -1.32981,0 0.6649,-0.66667 0.66491,-0.66667 0.66492,0.66667 0.6649,0.66667 -1.32982,0 z m 4.98681,0 -1.32981,0 0.6649,-0.66667 0.66491,-0.66667 0.66491,0.66667 0.6649,0.66667 -1.32981,0 z m 2.99209,0 -1.32982,0 0.66491,-0.66667 0.66491,-0.66667 0.66491,0.66667 0.6649,0.66667 -1.32981,0 z m 4.9868,0 -1.32981,0 0.6649,-0.66667 0.66491,-0.66667 0.66492,0.66667 0.6649,0.66667 -1.32982,0 z m -154.247588,-3.19282 -2.149954,0.30719 -0.71769,-1.16432 -0.717691,-1.16432 2.119623,0.67452 2.119622,0.67452 0,-0.95076 0,-0.95075 -2.068128,-0.54226 -2.068128,-0.54226 0.322745,-2.82437 0.322745,-2.82437 3.027368,-0.15455 3.027367,-0.15455 -0.533963,4.65455 -0.533964,4.65455 -2.149952,0.30718 z m -0.343452,-3.80718 0.997362,0 0,-2.5 0,-2.5 -0.997362,0 -0.997361,0 0,2.5 0,2.5 0.997361,0 z m 25.27749,3.80718 -2.149952,0.30719 -0.692668,-1.12372 -0.692657,-1.12372 0.735095,-0.68347 0.735095,-0.68346 0.445253,1.25 c 0.244882,0.6875 0.901854,1.25 1.459927,1.25 l 1.014676,0 -0.356956,-4.5 -0.356955,-4.5 1.308528,0 1.308539,0 -0.303986,4.75 -0.303986,4.75 -2.149953,0.30718 z m 45.75323,0.19282 -1.71409,0 0,-4.90316 0,-4.90316 2.99209,0.15316 2.99208,0.15316 0.32275,2.82437 0.32274,2.82437 -2.12454,0.55705 -2.12454,0.55705 0.5238,1.36858 0.52378,1.36858 -1.71407,0 z m 1.77668,-4 0.99736,0 0,-2.5 0,-2.5 -0.99736,0 -0.99736,0 0,2.5 0,2.5 0.99736,0 z m 8.75821,4 -1.71408,0 0.52379,-1.36858 0.52379,-1.36858 -2.12454,-0.55705 -2.12454,-0.55705 0.32275,-2.82437 0.32274,-2.82437 2.99209,-0.15316 2.99208,-0.15316 0,4.90316 0,4.90316 -1.71408,0 z m -1.77668,-4 0.99736,0 0,-2.5 0,-2.5 -0.99736,0 -0.99736,0 0,2.5 0,2.5 0.99736,0 z m 62.88364,3.88399 -2.54327,-0.116 1.99473,-0.48106 c 1.09709,-0.26459 2.42109,-0.88738 2.94221,-1.384 l 0.9475,-0.90293 -2.44354,-0.11843 c -1.34395,-0.0651 -2.82739,-0.0493 -3.29654,0.0351 -0.46915,0.0844 -1.45932,-0.35102 -2.20038,-0.96766 l -1.34736,-1.12118 -1.2904,0.83287 -1.29039,0.83286 -4.33112,0.0938 -4.33111,0.0938 -0.52958,-1.3837 -0.52958,-1.38371 -1.8715,1.69816 -1.87149,1.69815 -1.99472,-1.80997 -1.99472,-1.80998 0,-1.84501 0,-1.84501 0.92799,0 0.928,0 0.3187,2.25 0.31871,2.25 1.49604,0 1.49604,0 0.31871,-2.25 0.31871,-2.25 1.92535,0 1.92536,0 0.0153,2.75 0.0153,2.75 0.98208,-1.5 0.98209,-1.5 0.9821,1.5 0.98208,1.5 0.0153,-2.75 0.0154,-2.75 1.79525,0 1.79525,0 1.19683,1.2 1.19684,1.2 1.19683,-1.2 1.19683,-1.2 1.79525,0 1.79526,0 0,3 0,3 1.49604,0 1.49604,0 0,-3 0,-3 0.99736,0 0.99736,0 0,3.8 0,3.8 -1.19683,1.2 -1.19683,1.2 -2.54328,-0.11601 z m -9.64692,-3.88399 c 0.20711,0 0.88586,-0.6153 1.50834,-1.36733 l 1.13178,-1.36732 -1.50834,-1.25512 -1.50834,-1.25512 0,2.62244 c 0,1.44235 0.16945,2.62245 0.37656,2.62245 z m 7.22577,0 c 0.20711,0 0.37656,-1.1801 0.37656,-2.62245 l 0,-2.62244 -1.50834,1.25512 -1.50834,1.25512 1.13178,1.36732 c 0.62248,0.75203 1.30124,1.36733 1.50834,1.36733 z m -187.339799,0.78699 -2.8922703,0.0824 -0.5307739,-1.38684 -0.5307738,-1.38683 0.6459212,-1.04789 c 0.3552562,-0.57634 1.4048558,-1.07951 2.3324428,-1.11817 l 1.686521,-0.0703 -1.994723,-0.91248 -1.9947229,-0.91248 2.4564739,0.23277 2.456472,0.23277 0.628852,3.10227 0.628851,3.10227 -2.89227,0.0825 z m -0.784975,-0.78699 0.997361,0 0,-1.5 0,-1.5 -0.997361,0 -0.997362,0 0,1.5 0,1.5 0.997362,0 z m 8.826989,0.80674 -2.642669,0.30674 -0.349416,-5.05737 -0.349416,-5.05736 1.246702,6.2e-4 1.246702,6.3e-4 0,1.25945 0,1.25945 2.057819,1.28853 2.05782,1.28853 -0.312437,2.20202 -0.312436,2.20202 -2.642669,0.30674 z m 0.149265,-0.80674 0.997361,0 0,-1.94099 0,-1.94098 -0.997361,-0.61803 -0.997362,-0.61804 0,2.55902 0,2.55902 0.997362,0 z m 7.390048,1 -2.465845,0 -0.551728,-1.44159 c -0.303452,-0.79287 -0.396984,-2.25537 -0.20785,-3.25 l 0.343879,-1.80841 2.348906,-0.33467 2.348905,-0.33466 1.131671,1.15542 1.131672,1.15543 -2.742745,-0.67917 -2.742744,-0.67917 0,2.71682 0,2.71681 2.576972,-0.64849 2.576972,-0.64849 -0.64111,1.04008 -0.64111,1.04009 -2.465845,0 z m 8.415165,-0.21344 c -1.455286,0.0408 -2.913927,-0.19451 -3.241425,-0.52287 -0.327497,-0.32837 -0.59545,-1.39651 -0.59545,-2.37366 l 0,-1.77663 2.102846,-1.47678 2.102846,-1.47679 -0.665665,-1.07992 -0.665665,-1.07991 1.458646,0 1.458644,0 0.3456,4.8562 0.345598,4.8562 -2.645975,0.0741 z m -0.84479,-0.78656 0.997362,0 0,-2.55902 0,-2.55902 -0.997362,0.61804 -0.997362,0.61803 0,1.94098 0,1.94099 0.997362,0 z m 8.38741,1 -2.465845,0 -0.551729,-1.44159 c -0.303451,-0.79287 -0.395421,-2.25537 -0.204379,-3.25 l 0.347349,-1.80841 2.895313,0 2.895312,0 0.415567,1.25 0.415568,1.25 -2.576518,0 -2.576517,0 0,1.6084 0,1.60841 2.576972,-0.64849 2.576971,-0.64849 -0.64111,1.04008 -0.641109,1.04009 -2.465845,0 z m 0.0071,-5.07895 1.911578,0.079 -0.602572,-0.60417 -0.602573,-0.60417 -1.309037,0.52522 -1.309037,0.52522 1.91161,0.0789 z m 6.569611,5.07895 -1.556503,0 0.23158,-4.15373 0.231578,-4.15373 0.976474,-0.97905 0.976474,-0.97906 1.563082,0.6014 1.563082,0.6014 0,1.15383 0,1.15382 -1.483862,-1.23475 -1.483863,-1.23475 0.26923,4.61231 0.26923,4.61231 -1.556502,0 z m 15.591566,0 -1.133502,0 0,-5 0,-5 1.177334,0 1.177335,0 0.326324,2.25 c 0.179479,1.2375 0.159754,3.4875 -0.04383,5 l -0.370156,2.75 -1.133502,0 z m 4.524295,0 -0.951436,0 -0.409513,-3.51707 -0.409515,-3.51706 1.048419,0.34407 1.048417,0.34408 0.312531,3.17299 0.312532,3.17299 -0.951435,0 z m 5.86093,0 -1.545112,0 0,-3.5 0,-3.5 1.137585,0 1.137584,0 0.407527,3.5 0.407528,3.5 -1.545112,0 z m 13.664652,0 -1.246702,0 0,-5 0,-5 1.246702,0 1.246702,0 0,2.7 0,2.7 1.196834,-1.2 c 0.658258,-0.66 1.610838,-1.2 2.11684,-1.2 l 0.920016,0 -1.241606,1.5 -1.241605,1.5 1.261613,1.52416 1.261602,1.52417 -0.651107,0.65283 -0.651118,0.65283 -1.454013,-1.927 -1.454014,-1.92699 -0.03172,1.75 -0.03172,1.75 -1.246702,0 z m 10.22296,6.2e-4 -1.496044,-6.2e-4 0,-5 0,-5 1.150451,0 1.150435,0 0.3456,5.00062 0.3456,5.00062 -1.496042,-6.2e-4 z m 4.986812,-6.2e-4 -0.99737,0 0,-3.44322 0,-3.44323 3.74011,0.23439 3.74011,0.23439 0.31253,3.20883 0.31253,3.20884 -0.99431,0 -0.99431,0 -0.41549,-2.75 -0.41549,-2.75 -0.14943,2.75 -0.14944,2.75 -0.93112,0 -0.93111,0 -0.41549,-2.75 -0.41549,-2.75 -0.14944,2.75 -0.14943,2.75 -0.99736,0 z m 9.08537,0 -0.88825,0 -0.39642,-3.40466 -0.39643,-3.40466 3.03005,0.15466 3.03006,0.15466 0.31253,3.25 0.31253,3.25 -1.06055,0 -1.06056,0 0,-3 0,-3 -0.99736,0 -0.99736,0 0,3 0,3 -0.88824,0 z m 9.60948,-0.18303 -2.74841,0.31697 -0.57736,-1.50856 c -0.31755,-0.82971 -0.42106,-2.32234 -0.23001,-3.31697 l 0.34735,-1.80841 2.97843,0 2.97842,0 0,3 0,3 -2.74842,0.31697 z m -0.24367,-0.81697 1.49605,0 0,-2.5 0,-2.5 -1.49605,0 -1.49604,0 0,2.5 0,2.5 1.49604,0 z m 22.55168,1 -1.60708,0 0,-3.40316 0,-3.40316 2.91064,0.15316 2.91063,0.15316 0.4139,1.25 0.41391,1.25 -1.08048,0 -1.08048,0 0,-1.05902 0,-1.05902 -1.09128,0.67624 -1.09128,0.67623 0.4543,2.38278 0.45429,2.38279 -1.60707,0 z m 9.36389,0 -2.37568,0 -0.64111,-1.04009 -0.64111,-1.04008 2.82631,0.60823 2.82632,0.60823 -2.74788,-2.1553 -2.74788,-2.15531 0.56268,-0.91284 0.56267,-0.91284 2.37568,0 2.37569,0 0.6411,1.04008 0.64112,1.04008 -2.82632,-0.60823 -2.82631,-0.60823 2.74788,2.1553 2.74788,2.15531 -0.56268,0.91284 -0.56267,0.91285 -2.37569,0 z m 9.08362,0 c -0.69902,0 -1.57016,-0.3 -1.93586,-0.66667 -0.3657,-0.36667 -0.66491,-1.71667 -0.66491,-3 l 0,-2.33333 -0.98759,0 -0.98761,0 1.72787,-2.02334 1.72786,-2.02334 0.40665,1.27334 c 0.22365,0.70033 0.90036,1.60394 1.50379,2.00802 l 1.09716,0.73469 -1.2467,0.0153 -1.2467,0.0153 0,2.46861 0,2.46862 1.65965,-0.63856 1.65966,-0.63855 -0.72116,1.16994 c -0.39664,0.64346 -1.29309,1.16994 -1.99211,1.16994 z m 7.25235,-0.21563 c -1.47293,0.042 -2.946,-0.19232 -3.2735,-0.52068 -0.3275,-0.32837 -0.59545,-1.87203 -0.59545,-3.43036 l 0,-2.83333 0.99736,0 0.99737,0 0,3 0,3 0.99736,0 0.99736,0 0,-3 0,-3 0.88824,0 0.88825,0 0.39053,3.35401 0.39052,3.35401 -2.67804,0.0763 z m 39.51628,0.21563 -3.49076,0 0,-0.68555 c 0,-0.37706 1.00982,-1.78295 2.24406,-3.12421 l 2.24406,-2.43867 -2.24406,0.6916 -2.24406,0.6916 0,-1.06739 0,-1.06738 3.67736,0 3.67736,0 -2.92934,3.13558 -2.92934,3.13558 2.74274,-0.65463 2.74275,-0.65464 0,1.01905 0,1.01906 -3.49077,0 z m 10.38919,-0.0153 c -0.86855,0.008 -1.87837,-0.28469 -2.24407,-0.65136 -0.3657,-0.36667 -0.66491,-1.49167 -0.66491,-2.5 l 0,-1.83333 -1.2467,-0.0153 -1.2467,-0.0153 1.07011,-0.73469 c 0.58856,-0.40408 1.3599,-1.52219 1.71408,-2.48469 l 0.64397,-1.75 1.77669,0.0153 1.77668,0.0153 -1.40118,0.88943 -1.40119,0.88943 0.0921,3.24758 0.0921,3.24758 1.30908,0.83237 1.30909,0.83236 -1.57915,0.0153 z m 6.06728,0.0153 -0.99737,0 0,-2.5 0,-2.5 0.99737,0 0.99736,0 0,2.5 0,2.5 -0.99736,0 z m 6.4714,-0.20773 -1.98328,0.31524 1.30909,-0.90143 1.30909,-0.90144 0.0921,-3.24758 0.0921,-3.24758 -1.40118,-0.88943 -1.40119,-0.88943 1.83876,-0.0153 1.83875,-0.0153 0.52163,2 0.52163,2 1.13038,0.0153 1.13038,0.0153 -1.13132,0.73469 c -0.62223,0.40408 -1.3006,1.62952 -1.50749,2.7232 l -0.37618,1.98852 -1.98326,0.31524 z m 16.96659,-0.79227 -3.49076,0 0,-1.84502 0,-1.84501 1.83284,-1.66308 1.83283,-1.66309 1.65793,1.83684 1.65793,1.83684 0,1.67126 0,1.67126 -3.49077,0 z m 0,-1 1.64231,0 -0.33613,-1.75 -0.33613,-1.75 -0.98371,0.19717 c -0.54103,0.10845 -1.12882,0.89595 -1.30617,1.75 l -0.32247,1.55283 1.6423,0 z m -23.43799,-4 -0.99737,0 0,-2 0,-2 0.99737,0 0.99736,0 0,2 0,2 -0.99736,0 z m -151.598963,-2 c -0.548549,0 -0.997362,-0.45 -0.997362,-1 0,-0.55 0.448813,-1 0.997362,-1 0.548548,0 0.997361,0.45 0.997361,1 0,0.55 -0.448813,1 -0.997361,1 z m 9.973615,0 c -0.548549,0 -0.997361,-0.45 -0.997361,-1 0,-0.55 0.448812,-1 0.997361,-1 0.548549,0 0.997362,0.45 0.997362,1 0,0.55 -0.448813,1 -0.997362,1 z m 156.602768,-0.21858 -2.94041,-0.0838 0.48168,-0.78142 0.48166,-0.78143 2.94043,0.0838 2.94041,0.0838 -0.48168,0.78143 -0.48166,0.78142 -2.94043,-0.0838 z M 4.3010888,51.000003 c -0.4399073,0 -1.0990406,-0.3 -1.4647402,-0.66667 -0.3656985,-0.36667 -0.664907,-1.04167 -0.664907,-1.5 0,-0.45833 0.4007947,-0.83333 0.8906548,-0.83333 0.4898601,0 1.1489935,0.675 1.4647402,1.5 l 0.5740853,1.5 -0.7998331,0 z m 136.8063612,-5 -1.30011,0 0,-0.88337 0,-0.88337 -2.05585,-0.53904 -2.05585,-0.53904 0.31047,-4.327593 0.31046,-4.327592 2.99209,0 2.99208,0 0.0535,5.750005 0.0535,5.75 -1.30011,0 z m -2.63223,-3.75624 0.50513,-1.25623 0.91217,0.56525 0.91218,0.56525 0,-3.559018 0,-3.559017 -1.49604,0 -1.49604,0 0.0787,4.25 0.0787,4.250005 0.50513,-1.25624 z m 113.03661,3.48387 -4.48812,0 2.24406,-0.43337 c 1.23423,-0.23835 3.25389,-0.23835 4.48813,0 l 2.24406,0.43337 -4.48813,0 z M 3.8855221,43.863813 1.1114757,44.000003 0.56971989,42.584473 c -0.2979658,-0.77854 -0.39608323,-2.69104 -0.21803824,-4.250002 l 0.32371767,-2.834473 2.99208458,0 2.9920847,0 0,2.986305 0,2.98631 -1.7453827,0.33701 -1.7453827,0.33702 0,-2.07332 0,-2.073325 0.9973615,0 c 0.5485489,0 0.9973616,-0.45 0.9973616,-1 l 0,-1 -1.4960424,0 -1.4960423,0 0,3.430445 0,3.43045 2.2440635,0.43337 2.2440635,0.43337 -2.7740465,0.13618 z m 5.2674506,0.13619 -0.9973616,0 0,-3.34502 0,-3.34501 1.8328372,-1.663083 1.8328377,-1.663083 1.657928,1.836836 1.657928,1.836836 0,3.171264 0,3.17126 -0.997362,0 -0.997361,0 0,-2 0,-2 -1.496043,0 -1.496042,0 0,2 0,2 -0.9973613,0 z m 2.4934033,-5.000005 1.66227,0 -0.357389,-1.075 c -0.196563,-0.59125 -0.783759,-1.075 -1.304881,-1.075 -0.521121,0 -1.108318,0.48375 -1.304881,1.075 l -0.3573883,1.075 1.6622693,0 z m 7.978893,4.794715 -2.992085,0.29471 0,-5.089425 0,-5.089426 2.992085,0.294713 2.992084,0.294713 0,4.5 0,4.500005 -2.992084,0.29471 z m 0.498681,-0.79471 0.997361,0 0,-2 0,-2.000005 -0.997361,0 -0.997362,0 0,2.000005 0,2 0.997362,0 z m 0,-5.000005 0.997361,0 0,-1.5 0,-1.5 -0.997361,0 -0.997362,0 0,1.5 0,1.5 0.997362,0 z m 8.387803,5.788325 -1.928251,0.28832 -1.235053,-1.23832 -1.235053,-1.23832 0,-2.67756 0,-2.677556 1.44813,-1.20502 1.448129,-1.20502 1.710647,0.332575 1.710648,0.332576 0.494181,1.5 0.49418,1.5 -1.614545,-1.33609 -1.614545,-1.33609 -1.041051,0.645107 -1.041051,0.645107 0,2.881966 0,2.881965 1.041051,0.64511 1.041051,0.64511 1.614545,-1.33609 1.614545,-1.33609 -0.489654,1.5 -0.489654,1.5 -1.92825,0.28832 z m 6.123807,0.21168 -2.044591,0 0,-5.000005 0,-5 2.044591,0 2.044591,0 1.196834,1.2 1.196834,1.2 0,2.6 0,2.600005 -1.196834,1.2 -1.196834,1.2 -2.044591,0 z m 1.446174,-1.5 0.997362,-0.61804 0,-2.881965 0,-2.881966 -0.997362,-0.618034 -0.997361,-0.618034 0,4.118034 0,4.118035 0.997361,-0.61803 z m 7.729552,1.5 -3.241425,0 0,-5.000005 0,-5 3.241425,0 3.241425,0 0,1.7 0,1.7 -1.196833,-1.2 c -0.658259,-0.66 -1.555885,-1.2 -1.994724,-1.2 l -0.797889,0 0,1.559017 0,1.559017 0.997362,-0.618034 0.997361,-0.618034 0,1.618034 0,1.618035 -0.997361,-0.61803 -0.997362,-0.618039 0,2.059019 0,2.05902 0.797889,0 c 0.438839,0 1.336465,-0.54 1.994724,-1.2 l 1.196833,-1.2 0,1.7 0,1.7 -3.241425,0 z m 6.344544,0 -1.607076,0 0,-5.000005 0,-5 3.241425,0 3.241425,0 0,1.7 0,1.7 -1.196834,-1.2 c -0.658259,-0.66 -1.555884,-1.2 -1.994723,-1.2 l -0.797889,0 0,1.559017 0,1.559017 0.997361,-0.618034 0.997362,-0.618034 0,1.618034 0,1.618035 -1.141968,-0.70764 -1.141967,-0.707645 0.504981,2.648625 0.50498,2.64863 -1.607077,0 z m 10.535169,-0.24374 -2.319496,0.19247 -1.171269,-1.17437 -1.171269,-1.17436 0,-2.67756 0,-2.677556 1.44813,-1.20502 1.448129,-1.20502 1.710648,0.332575 1.710648,0.332576 0.49418,1.5 0.494181,1.5 -1.700504,-1.407618 -1.700505,-1.407619 -1.033063,1.035796 -1.033063,1.035796 0.327311,2.7947 0.327312,2.79471 1.246702,0.41045 1.246702,0.41045 0,-1.5 0,-1.5 -1.246702,-0.50438 -1.246702,-0.50439 2.244064,-0.07895 2.244063,-0.07895 0,2.281895 0,2.28189 -2.319497,0.19248 z m 4.31422,0.24374 -0.997361,0 0,-5.000005 0,-5 0.997361,0 0.997362,0 0,2 0,2 1.496042,0 1.496042,0 0,-2 0,-2 0.997362,0 0.997362,0 0,5 0,5.000005 -0.997362,0 -0.997362,0 0,-2.5 0,-2.500005 -1.496042,0 -1.496042,0 0,2.500005 0,2.5 -0.997362,0 z m 10.970977,0 -1.496042,0 0,-5.000005 0,-5 1.496042,0 1.496043,0 0,5 0,5.000005 -1.496043,0 z m 7.439171,-0.20782 -2.035765,0.29218 -0.70698,-0.70885 c -0.388841,-0.38987 -0.706979,-1.30885 -0.706979,-2.04218 l 0,-1.33333 0.997361,0 0.997362,0 0,1.5 0,1.5 1.097786,0 1.097795,0 -0.356955,-4.500005 -0.356956,-4.5 1.549072,0 1.549072,0 -0.544519,4.75 -0.54453,4.750005 -2.035764,0.29218 z m 6.205184,0.20782 -1.177335,0 0,-5.000005 0,-5 1.177335,0 1.177336,0 0.441432,2.25 0.441432,2.25 0.741618,-2.25 0.741618,-2.25 0.881039,0 0.88104,0 0,1.3 c 0,0.715 -0.538575,1.84 -1.196834,2.5 l -1.196834,1.2 1.196834,1.200005 c 0.658259,0.66 1.196834,1.785 1.196834,2.5 l 0,1.3 -0.88104,0 -0.881039,0 -0.741618,-2.25 -0.741618,-2.25 -0.441432,2.25 -0.441432,2.25 -1.177336,0 z m 10.042989,0 -3.241432,0 0,-5.000005 0,-5 1.503236,0 1.503228,0 -0.35696,4.5 -0.356956,4.500005 0.898328,0 c 0.494066,0 1.436886,-0.54 2.095146,-1.2 l 1.19683,-1.2 0,1.7 0,1.7 -3.24142,0 z m 5.23615,0 -0.99737,0 0,-5.000005 0,-5 0.79789,0 c 0.43884,0 1.33647,0.54 1.99473,1.2 l 1.19683,1.2 1.19683,-1.2 c 0.65826,-0.66 1.85716,-1.2 2.66422,-1.2 0.80705,0 2.28813,0.744744 3.29129,1.654988 l 1.82391,1.654987 0,-1.654987 0,-1.654988 0.99737,0 0.99736,0 0,5 0,5.000005 -0.99736,0 -0.99737,0 0,-1.87756 0,-1.87756 -1.49604,-1.244885 -1.49604,-1.244889 0,3.122444 0,3.12245 -1.99472,0 -1.99473,0 0,-2.78572 0,-2.785714 -1.99472,0 -1.99472,0 0,2.785714 0,2.78572 -0.99736,0 z m 18.69485,-0.18303 -2.74841,0.31697 -0.56328,-1.47178 c -0.30981,-0.80947 -0.41946,-2.97711 -0.24368,-4.816969 l 0.31962,-3.345196 2.99208,0 2.99209,0 0,4.5 0,4.500005 -2.74842,0.31697 z m -0.24367,-0.81697 1.49605,0 0,-4.000005 0,-4 -1.49605,0 -1.49604,0 0,4 0,4.000005 1.49604,0 z m 6.59389,1 -1.60708,0 0,-5.044718 0,-5.044713 2.98392,0.294713 2.98391,0.294713 0.34425,1.820876 0.34426,1.820875 -2.17102,0.569237 -2.17103,0.569237 0.44994,2.35989 0.44993,2.35989 -1.60708,0 z m 1.88369,-6.000005 0.99736,0 0,-1.5 0,-1.5 -0.99736,0 -0.99736,0 0,1.5 0,1.5 0.99736,0 z m 13.71372,6.000005 -1.2467,0 0,-5.044718 0,-5.044713 2.99208,0.294713 2.99209,0.294713 0.20129,4.75 0.2013,4.750005 -0.94932,0 -0.94932,0 0,-1.94099 0,-1.94098 -0.99736,-0.61803 -0.99736,-0.618039 0,2.559019 0,2.55902 -1.2467,0 z m 2.24406,-6.000005 0.99736,0 0,-1.5 0,-1.5 -0.99736,0 -0.99736,0 0,1.5 0,1.5 0.99736,0 z m 7.57038,6.000005 -2.46585,0 -0.65741,-1.06654 -0.65741,-1.06653 0.73509,-0.68347 0.7351,-0.68346 0.44525,1.25 0.44525,1.25 1.41292,0 1.41294,0 0,-1.21244 0,-1.21244 -2.65429,-2.122049 -2.65429,-2.122054 0.71843,-1.165511 0.71842,-1.165511 2.37568,0 2.37569,0 0.65741,1.066531 0.65741,1.066531 -0.73509,0.683469 -0.7351,0.683469 -0.44525,-1.25 -0.44525,-1.25 -1.41293,0 c -0.77711,0 -1.41293,0.320596 -1.41293,0.712435 0,0.39184 1.19759,1.669886 2.66131,2.840102 l 2.66131,2.127668 -0.63529,1.6599 -0.63528,1.6599 -2.46584,0 z m 8.38741,0 -1.51042,0 0.37445,-4.720577 0.37445,-4.720573 -1.61396,1.343017 -1.61397,1.343017 0,-1.622444 0,-1.622445 4.98681,0 4.98681,0 0,4.5 0,4.500005 1.49604,0 1.49604,0 0,-4.500005 0,-4.5 1.05201,0 1.052,0 -0.30398,4.75 -0.30399,4.750005 -2.99208,0 -2.99209,0 -0.30698,-3.17553 -0.307,-3.175532 -1.55631,-1.295044 -1.55632,-1.295044 0.37445,4.720573 0.37445,4.720577 -1.51041,0 z m 15.99024,0 c -0.39637,0 -1.46344,-0.82294 -2.37128,-1.82875 l -1.65062,-1.82874 0,-3.171256 0,-3.171259 0.93715,0 0.93716,0 0.30954,3.75 0.30955,3.750005 1.49604,0 1.49604,0 0.30955,-3.750005 0.30955,-3.75 1.93452,0 1.93451,0 0.0153,3.75 0.0153,3.750005 0.98208,-1.5 0.98209,-1.500005 0.9821,1.500005 0.98208,1.5 0.0153,-3.750005 0.0154,-3.75 1.63543,0 1.63542,0 1.35667,1.75 1.35665,1.75 1.35665,-1.75 1.35666,-1.75 1.5191,0 1.51911,0 0.52163,2 0.52163,2 1.18411,0 1.18411,0 0.52163,-2 0.52163,-2 4.87048,0 4.87049,0 0,0.812909 c 0,0.4471 -1.34644,2.106291 -2.99209,3.687091 -1.64564,1.580805 -2.99208,3.239995 -2.99208,3.687095 l 0,0.81291 1.79525,0 1.79525,0 1.19683,-1.2 1.19684,-1.2 0,1.7 0,1.7 -3.98945,0 -3.98945,0 0,-1.2024 c 0,-0.66131 1.43449,-2.68631 3.18774,-4.499998 l 3.18773,-3.297607 -1.78706,0 -1.78708,0 -2.98761,2.133001 -2.98762,2.133 0.45129,2.367004 0.45128,2.367 -1.71811,0 -1.71812,0 0.43431,-2.27793 0.43431,-2.27793 -1.92565,-1.747303 -1.92566,-1.747299 -1.278,1.543986 -1.27801,1.543986 1.79379,1.98737 1.79381,1.98738 -0.6691,0.67087 -0.66909,0.67086 -1.48574,-1.927 -1.48574,-1.92699 -1.48574,1.92699 -1.48574,1.927 -0.66909,-0.67086 -0.6691,-0.67087 1.83882,-2.03726 1.83884,-2.037261 -1.67872,-1.683158 -1.67872,-1.683157 -0.0153,2.964285 -0.0153,2.964291 -0.98208,1.5 -0.98209,1.5 -0.99736,-1.5 -0.99737,-1.5 -0.95797,1.49512 -0.95799,1.49513 -1.33856,-1.83543 -1.33856,-1.83542 -1.31634,1.5903 c -0.724,0.87466 -1.64064,1.5903 -2.03701,1.5903 z m 40.11134,-0.079 -2.24406,0.079 0,-5.000005 0,-5 2.24406,0.07895 2.24407,0.07895 -1.2467,0.504386 -1.24671,0.504381 0,3.833333 0,3.833335 1.24671,0.50438 1.2467,0.50439 -2.24407,0.0789 z m 10.57047,-0.96635 -0.37499,1.12795 -3.33959,-3.4547 -3.33961,-3.454708 0.375,-1.127952 0.37499,-1.127952 3.33959,3.454705 3.33961,3.454707 -0.375,1.12795 z m 4.88864,0.96635 -2.24407,-0.0789 1.24671,-0.50439 1.2467,-0.50438 0,-3.833335 0,-3.833333 -1.2467,-0.504386 -1.24671,-0.504386 2.24407,-0.07895 2.24406,-0.07895 0,5 0,5.000005 -2.24406,-0.079 z m 5.02271,-7.921055 -1.09309,0 1.81252,-2.008096 1.8125,-2.008095 1.83895,1.668631 c 1.01142,0.917748 1.62265,1.885516 1.35826,2.150597 -0.26438,0.26508 -1.1248,-0.05401 -1.91205,-0.709095 l -1.43134,-1.191059 -0.64634,1.048559 c -0.35548,0.576707 -1.13822,1.048558 -1.73941,1.048558 z M 36.162541,29.940565 c -0.318718,-0.03269 -1.36491,-0.857938 -2.32487,-1.833888 -0.959961,-0.97595 -1.745383,-2.164205 -1.745383,-2.640567 l 0,-0.866112 1.196834,1.2 c 0.658259,0.66 1.78029,1.2 2.493404,1.2 l 1.29657,0 0,-2 0,-2 -2.026025,0 -2.026026,0 -0.59551,-1.555982 -0.595512,-1.555983 2.188867,-2.044634 2.188865,-2.044633 1.398313,1.850616 c 0.769071,1.017839 1.412586,2.278116 1.430032,2.800616 l 0.03172,0.95 -1.196834,-1.2 c -0.658259,-0.66 -1.78029,-1.2 -2.493404,-1.2 l -1.29657,0 0,1.5 0,1.5 2.026026,0 2.026025,0 0.599904,1.567461 0.599904,1.56746 -1.298421,2.43254 c -0.714131,1.337896 -1.559191,2.405794 -1.877908,2.373106 z m 63.080797,-1.216329 -1.16823,0.389971 0.536531,-2.057104 0.536521,-2.057105 0.95418,0 0.95416,0 -0.32247,1.667134 -0.32247,1.667133 -1.168222,0.389971 z M 12.145057,27.999998 c -0.548549,0 -0.997361,-0.45 -0.997361,-1 0,-0.55 0.448812,-1 0.997361,-1 0.548549,0 0.997362,0.45 0.997362,1 0,0.55 -0.448813,1 -0.997362,1 z m 13.963062,0 c -0.548549,0 -1.033824,-0.3375 -1.078389,-0.75 -0.04456,-0.4125 -0.17236,-2.005176 -0.28399,-3.539279 l -0.202962,-2.789279 0.78267,-1.210721 0.782671,-1.210721 0.87663,1.363153 0.87663,1.363152 0.482868,-1.363152 0.482869,-1.363153 0.729602,0.67796 c 0.40128,0.372878 0.825133,2.061496 0.941894,3.752485 l 0.212293,3.074525 -0.805351,1.247515 -0.805351,1.247515 -0.982088,-1.5 -0.982089,-1.5 -0.01527,1.25 -0.01527,1.25 -0.997361,0 z m 1.599934,-3.270833 0.602572,-0.604167 -0.523833,-1.3125 -0.523833,-1.3125 -0.07874,1.916667 -0.07874,1.916666 0.602573,-0.604166 z m 15.853893,0.270833 -3.490765,3.392334 0,-1 c 0,-0.55 1.570844,-2.526551 3.490765,-4.392334 l 3.490765,-3.392334 0,1 c 0,0.55 -1.570844,2.526551 -3.490765,4.392334 z m 2.493404,3 c -0.548549,0 -0.997362,-0.45 -0.997362,-1 0,-0.55 0.448813,-1 0.997362,-1 0.548549,0 0.997361,0.45 0.997361,1 0,0.55 -0.448812,1 -0.997361,1 z m 5.678543,-0.21035 -2.79903,0.07979 -0.549101,-1.434719 -0.549103,-1.434721 0.762691,-1.75 c 0.41948,-0.9625 0.67085,-2.318523 0.558601,-3.013384 l -0.204089,-1.263383 1.609868,-0.619399 1.609869,-0.619399 1.087524,1.090401 1.087524,1.090401 -1.295634,1.565274 -1.295635,1.565273 1.387772,-0.533947 1.387773,-0.533947 0,2.865983 0,2.865983 -2.79903,0.07979 z m -0.691735,-0.78965 0.997361,0 0,-1.440983 c 0,-0.792541 -0.448813,-1.719098 -0.997361,-2.059017 l -0.997362,-0.618034 0,2.059017 0,2.059017 0.997362,0 z m 0.664908,-6.333333 0.664907,-0.666667 -0.664907,-0.666667 -0.664908,-0.666666 0,1.333333 0,1.333333 0.664908,-0.666666 z m 17.686544,7.333333 c -0.548549,0 -1.535937,-0.54 -2.194195,-1.2 l -1.196834,-1.2 0,-2.6 0,-2.6 1.196834,-1.2 c 0.658258,-0.66 1.645646,-1.2 2.194195,-1.2 l 0.997362,0 -1.196834,1.2 -1.196834,1.2 0,2.6 0,2.6 1.196834,1.2 1.196834,1.2 -0.997362,0 z m 5.18628,0 -0.997361,0 1.196833,-1.2 1.196834,-1.2 0,-2.6 0,-2.6 -1.196834,-1.2 -1.196833,-1.2 0.997361,0 c 0.548549,0 1.535937,0.54 2.194196,1.2 l 1.196833,1.2 0,2.6 0,2.6 -1.196833,1.2 c -0.658259,0.66 -1.645647,1.2 -2.194196,1.2 z m 41.29077,0 c -0.54855,0 -0.99736,-0.45 -0.99736,-1 0,-0.55 0.44881,-1 0.99736,-1 0.54855,0 0.99736,0.45 0.99736,1 0,0.55 -0.44881,1 -0.99736,1 z m 7.48021,-3 -3.49076,3.392334 0,-1 c 0,-0.55 1.57084,-2.526551 3.49076,-4.392334 l 3.49077,-3.392334 0,1 c 0,0.55 -1.57085,2.526551 -3.49077,4.392334 z m 8.47758,3 -1.75048,0 -1.19155,-1.439528 -1.19156,-1.439528 0.32141,-2.70961 0.32141,-2.70961 1.74538,-1.095747 1.74539,-1.095747 1.74538,1.095747 1.74538,1.095747 0.32141,2.70961 0.32141,2.70961 -1.19156,1.439528 -1.19154,1.439528 -1.75048,0 z m 0.24987,-1.250175 1.24617,-0.416492 0,-3.416666 0,-3.416667 -1.49604,0 -1.49605,0 -0.32821,2.322726 c -0.18052,1.277499 -0.0681,3.00242 0.24986,3.833158 l 0.57808,1.510432 1.24619,-0.416491 z m -0.24987,-2.749825 c -0.54855,0 -0.99736,-0.45 -0.99736,-1 0,-0.55 0.44881,-1 0.99736,-1 0.54855,0 0.99736,0.45 0.99736,1 0,0.55 -0.44881,1 -0.99736,1 z m 7.97889,3.842105 -3.49077,0 1.24671,-0.504386 1.2467,-0.504386 0,-2.916666 0,-2.916667 -1.11948,0 -1.11949,0 1.24161,-1.5 c 0.68288,-0.825 1.63546,-1.5 2.11684,-1.5 l 0.87524,0 0,4.416667 0,4.416666 1.2467,0.504386 1.2467,0.504386 -3.49076,0 z m 7.48021,0.157895 -3.49076,0 0,-1.325686 0,-1.325686 2.4934,-2.348628 c 1.37137,-1.291745 2.4934,-2.76897 2.4934,-3.282722 l 0,-0.934094 -2.57697,0.64849 -2.57697,0.648489 0.64111,-1.040081 0.64111,-1.040082 2.37568,0 2.37569,0 0.66648,1.08126 0.6665,1.081261 -2.60236,2.723458 c -1.43129,1.497902 -2.60235,3.085119 -2.60235,3.527148 l 0,0.803689 2.4934,-0.62746 2.49341,-0.62746 0,1.019052 0,1.019052 -3.49077,0 z m 8.32242,-0.19269 -2.64856,0.307309 -0.67643,-1.097391 -0.67644,-1.097391 2.57697,0.648489 2.57698,0.64849 0,-2.035084 0,-2.035084 -1.74539,-0.457322 -1.74538,-0.457323 1.74538,-0.116002 1.74539,-0.116001 0,-1.608408 0,-1.608408 -2.74275,0.679171 -2.74274,0.67917 1.13166,-1.155427 1.13168,-1.155428 2.35909,0.334665 2.3591,0.334665 0,4.5 0,4.5 -2.64856,0.30731 z m 9.0382,0.19269 -1.71477,0 0.52163,-2 0.52163,-2 -2.11104,0 -2.11105,0 0,-0.825686 c 0,-0.454127 1.12027,-1.880902 2.48947,-3.17061 1.36921,-1.289708 2.6972,-2.136648 2.95109,-1.882089 0.25389,0.25456 0.62051,2.581334 0.81471,5.17061 l 0.35311,4.707775 -1.71478,0 z m -1.96038,-5 1.05623,0 0,-1 c 0,-0.55 -0.19792,-1 -0.43982,-1 -0.2419,0 -0.7172,0.45 -1.05623,1 l -0.61639,1 1.05621,0 z m 8.87997,4.80731 -2.64856,0.307309 -0.67643,-1.097391 -0.67644,-1.097391 2.57697,0.648489 2.57697,0.64849 0,-2.108408 0,-2.108408 -2.4934,0 -2.49341,0 0,-2.5 0,-2.5 3.74011,0.149832 3.7401,0.149832 -2.74274,0.41659 -2.74274,0.416591 0,1.364026 0,1.364027 2.24406,0.319551 2.24406,0.319551 0,2.5 0,2.5 -2.64855,0.30731 z m 8.09672,-0.0114 -2.53073,0.295909 -0.71069,-0.712576 c -0.39089,-0.391917 -0.7107,-2.122576 -0.7107,-3.84591 l 0,-3.133333 1.19683,-1.2 c 0.65826,-0.66 1.89249,-1.186316 2.74274,-1.169591 l 1.54591,0.03041 -1.74538,1.019282 c -0.95996,0.560605 -1.74538,1.415623 -1.74538,1.90004 l 0,0.880759 2.24406,0.319551 2.24407,0.319551 0,2.5 0,2.5 -2.53073,0.29591 z m -0.46136,-0.79591 1.49604,0 0,-2 0,-2 -1.49604,0 -1.49604,0 0,2 0,2 1.49604,0 z m 7.48021,1 -0.99736,0 0,-1.877555 0,-1.877556 1.49604,-1.244889 1.49605,-1.244889 0,-1.485964 0,-1.485963 -2.49341,0.62746 -2.4934,0.62746 0,-1.019052 0,-1.019052 3.49076,0 3.49077,0 0,1.877555 0,1.877556 -1.49604,1.244889 -1.49605,1.244889 0,1.877556 0,1.877555 -0.99736,0 z m 8.72124,-0.183029 -2.74841,0.316971 -0.45706,-1.316971 c -0.25139,-0.724334 -0.36104,-2.891971 -0.24367,-4.816971 l 0.21339,-3.5 2.99209,0 2.99208,0 0,4.5 0,4.5 -2.74842,0.316971 z m -0.24366,-0.816971 1.49604,0 0,-2 0,-2 -1.49604,0 -1.49605,0 0,2 0,2 1.49605,0 z m 0,-5 1.49604,0 0,-1.5 0,-1.5 -1.49604,0 -1.49605,0 0,1.5 0,1.5 1.49605,0 z m 7.10875,5.936614 -2.12195,-0.06339 2.24407,-0.904389 2.24406,-0.90439 0,-1.462673 0,-1.462673 -2.24406,-0.319551 -2.24407,-0.319548 0,-2 0,-2 2.99209,0 2.99208,0 0.31739,3.315324 0.31739,3.315324 -1.18753,1.434676 -1.18753,1.434676 -2.12194,-0.06339 z m 0.87014,-5.936614 1.49604,0 0,-1.5 0,-1.5 -1.49604,0 -1.49604,0 0,1.5 0,1.5 1.49604,0 z m 15.64543,5.77106 -1.18505,0.39606 0.60607,-1.58356 c 0.33334,-0.870958 1.04426,-1.58356 1.57983,-1.58356 l 0.97378,0 -0.3948,1.1875 c -0.21714,0.653125 -0.92806,1.365727 -1.57983,1.58356 z m 11.13236,0.22894 c -0.54855,0 -1.97574,-1.044189 -3.17153,-2.320419 l -2.17417,-2.320419 2.49506,-2.350191 2.49506,-2.35019 0.50873,0.510073 0.50873,0.510074 -2.01632,1.829567 -2.01631,1.829567 2.18406,2.330969 2.18405,2.330969 -0.99736,0 z m 11.27292,0 -0.99736,0 2.18405,-2.330969 2.18406,-2.330969 -2.01632,-1.829567 -2.01631,-1.829567 0.50872,-0.510074 0.50874,-0.510073 2.49506,2.35019 2.49506,2.350191 -2.17417,2.320419 c -1.19579,1.27623 -2.62298,2.320419 -3.17153,2.320419 z m 10.32132,0 c -0.54855,0 -0.99736,-0.45 -0.99736,-1 0,-0.55 0.44881,-1 0.99736,-1 0.54855,0 0.99736,0.45 0.99736,1 0,0.55 -0.44881,1 -0.99736,1 z m -39.89446,-1 c -0.54855,0 -0.99736,-0.45 -0.99736,-1 0,-0.55 0.44881,-1 0.99736,-1 0.54855,0 0.99736,0.45 0.99736,1 0,0.55 -0.44881,1 -0.99736,1 z m -127.662281,-1.333333 -2.904337,0 0.46102,-0.747923 0.461021,-0.747924 -1.252916,-0.506462 -1.252915,-0.506463 1.305566,-0.07895 1.305556,-0.07895 -0.513661,-0.833333 -0.513671,-0.833334 2.904337,0 2.904336,0 -0.46102,0.747923 -0.46102,0.747924 1.252915,0.506462 1.252916,0.506463 -1.305567,0.07895 -1.305556,0.07895 0.513661,0.833333 0.513671,0.833334 -2.904336,0 z m 7.800793,0.295296 c -0.176323,-0.02092 -0.810047,-0.600132 -1.408284,-1.287136 l -1.087703,-1.249099 1.337043,-1.25229 1.337043,-1.252291 1.346319,1.260976 1.346318,1.260976 -1.275077,1.27845 c -0.701295,0.703148 -1.419345,1.261334 -1.595659,1.240414 z m -79.610825,-0.961963 -0.781118,0 -0.662011,-2.644645 -0.662013,-2.644644 1.052572,-1.055356 1.05257,-1.055355 1.052571,1.055355 1.052571,1.055356 -0.662013,2.644644 -0.662011,2.644645 -0.781118,0 z m 223.408993,-0.232003 -3.49077,0 1.74539,-0.457323 c 0.95996,-0.251527 2.5308,-0.251527 3.49076,0 l 1.74538,0.457323 -3.49076,0 z m 15.70844,0.224201 c -0.41141,0.0043 -0.74802,-0.64064 -0.74802,-1.433181 0,-0.792541 0.44881,-1.719098 0.99736,-2.059017 0.54855,-0.339919 0.99736,-1.041476 0.99736,-1.559017 l 0,-0.940983 -1.41293,0 -1.41292,0 -0.44525,1.25 -0.44525,1.25 -0.7351,-0.683469 -0.73509,-0.683469 0.65741,-1.066531 0.65741,-1.066531 2.37568,0 2.37569,0 0.52982,0.859534 0.52981,0.859534 -1.21898,2.632664 c -0.67044,1.447965 -1.55559,2.636175 -1.967,2.640466 z m -143.8694,-1.244381 -3.98945,-0.02018 2.2557,-0.434897 c 1.24062,-0.239193 3.03587,-0.230112 3.98944,0.02018 l 1.73376,0.455077 -3.98945,-0.02018 z M 41.068542,21.999998 c -0.548549,0 -0.997361,-0.45 -0.997361,-1 0,-0.55 0.448812,-1 0.997361,-1 0.548549,0 0.997362,0.45 0.997362,1 0,0.55 -0.448813,1 -0.997362,1 z m 170.548828,0 c -0.54855,0 -0.99736,-0.45 -0.99736,-1 0,-0.55 0.44881,-1 0.99736,-1 0.54855,0 0.99736,0.45 0.99736,1 0,0.55 -0.44881,1 -0.99736,1 z m 7.97889,0 c -0.54855,0 -0.99736,-0.45 -0.99736,-1 0,-0.55 0.44881,-1 0.99736,-1 0.54855,0 0.99737,0.45 0.99737,1 0,0.55 -0.44882,1 -0.99737,1 z m 15.95779,-0.232003 -3.49077,0 1.74539,-0.457323 c 0.95996,-0.251527 2.5308,-0.251527 3.49076,0 l 1.74538,0.457323 -3.49076,0 z M 18.870422,19.671729 18.437927,21.499998 17.661683,19.70687 16.88544,17.913742 l 0.621893,-0.623539 0.621893,-0.623538 0.586845,0.588397 0.586845,0.588398 -0.432494,1.828269 z m 3.248251,0.828269 -0.997362,0.618034 0,-2.059017 0,-2.059017 0.997362,0 0.997361,0 0,1.440983 c 0,0.792541 -0.448813,1.719098 -0.997361,2.059017 z m 36.232834,0.224238 -1.168222,0.389971 0.536525,-2.057104 0.536526,-2.057105 0.954169,0 0.954168,0 -0.322471,1.667134 -0.322471,1.667133 -1.168224,0.389971 z m 9.645797,-4.724238 -3.989446,0 0,-7.9999996 0,-8.00000033 3.989446,0 3.989446,0 0,8.00000033 0,7.9999996 -3.989446,0 z m 0,-6 c 0.483801,0 1.181189,-0.4892089 1.549751,-1.0871319 l 0.670111,-1.0871327 -1.10993,-1.112867 -1.109932,-1.112868 -1.109932,1.112868 -1.109931,1.112867 0.670112,1.0871327 c 0.368562,0.597923 1.06595,1.0871319 1.549751,1.0871319 z m 15.957785,6 -3.989446,0 0,-7.9999996 0,-8.00000033 3.989446,0 3.989446,0 0,3.65498833 0,3.654987 1.971205,-1.788634 1.971206,-1.788635 -0.534028,-0.866353 -0.534017,-0.8663533 2.053577,0 2.053588,0 -0.07869,2.2500003 -0.07879,2.25 -0.505123,-1.256231 -0.505124,-1.25623 -0.891751,0.552591 -0.891751,0.552591 1.134339,1.821174 1.134339,1.8211737 -0.668491,1.7466649 -0.668492,1.746665 -2.480996,-0.475528 -2.480997,-0.475527 0,2.361328 0,2.361328 -3.989446,0 z m 0.244882,-5.179863 2.248522,-0.320137 0,-2.4999996 0,-2.5 -2.248522,-0.320137 -2.248522,-0.320137 -0.60093,1.570137 -0.60093,1.570137 0.60093,1.5701367 0.60093,1.5701369 2.248522,-0.320137 z M 83.955089,9.999998 c -0.4838,0 -1.181186,-0.4892089 -1.549751,-1.0871319 l -0.670117,-1.0871327 1.109934,-1.112867 1.109934,-1.112868 1.109933,1.112868 1.109924,1.112867 -0.670107,1.0871327 c -0.368565,0.597923 -1.06595,1.0871319 -1.54975,1.0871319 z m 6.981531,1 0.997361,0 0,-1.9999999 0,-1.9999997 -0.997361,0 -0.997362,0 0,1.9999997 0,1.9999999 0.997362,0 z m 22.04006,1.806581 -1.39794,0.46118 0.63629,-2.38388 c 0.34998,-1.3111349 0.64244,-3.8463806 0.64993,-5.6338806 l 0.0136,-3.2500003 3.49076,0 3.49077,0 0,1.5000003 0,1.5 1.2467,0.01531 1.2467,0.01531 -1.49604,0.969374 -1.49604,0.969375 1.34007,0.01531 1.34008,0.01531 0.52163,-2 c 0.2869,-1.1 0.86575,-2 1.28634,-2 0.4206,0 0.99945,0.9 1.28635,2 l 0.52163,2 1.34008,-0.01531 1.34007,-0.01531 -1.49604,-0.969375 -1.49604,-0.969374 1.2467,-0.01531 1.2467,-0.01531 0,-2.098492 0,-2.0984913 3.24143,2.8374443 3.24142,2.837444 -2.93093,2.6242247 -2.93091,2.6242249 -1.19749,-1.113178 -1.1975,-1.1131769 1.13633,-0.734687 1.13633,-0.7346867 -1.34007,-0.01531 -1.34008,-0.01531 -0.52163,1.9999996 c -0.2869,1.1 -0.86575,2 -1.28635,2 -0.42059,0 -0.99944,-0.9 -1.28634,-2 l -0.52163,-1.9999996 -1.34008,0.07895 -1.34007,0.07895 1.29956,0.5220537 1.29957,0.522053 -1.79825,1.3671959 c -0.98903,0.751957 -2.15519,1.381507 -2.59146,1.398999 l -0.79322,0.0318 0.65488,-3.4999999 0.65487,-3.4999997 -1.54683,0 -1.54684,0 -0.30954,3.6726997 -0.30955,3.6727009 -1.39794,0.46118 z m 10.87287,-4.8065806 1.32982,0 -0.6649,-0.666667 -0.66492,-0.666666 -0.66491,0.666666 -0.6649,0.666667 1.32981,0 z m -7.56332,-4.078947 1.91161,0.07895 -0.60257,-0.604167 -0.60258,-0.604166 -1.30903,0.525219 -1.30904,0.525219 1.91161,0.07895 z m 55.12847,8.9629456 c -1.20186,-0.0638 -2.94719,-0.317273 -3.87851,-0.56327 l -1.69332,-0.447269 -0.37096,-4.6867296 -0.37098,-4.68673 -0.17978,4.75 -0.17977,4.7499996 -0.99736,0 -0.99736,0 0,-2.139757 0,-2.1397576 -1.6581,-1.215635 -1.65809,-1.215635 0.57132,-1.492781 0.57133,-1.4927813 6.26801,-0.656871 6.26802,-0.656871 1.05227,1.075807 1.05225,1.0758073 -2.99208,-0.6693463 -2.99208,-0.669346 2.96274,2.4803353 2.96274,2.480336 -1.26579,1.52922 -1.26579,1.5292206 1.06206,0.658126 1.06206,0.658126 -0.57381,0.930901 -0.57381,0.930902 -2.18521,-0.116001 z m 0.30821,-0.921548 1.49604,-0.0069 -2.4934,-1.928388 -2.49341,-1.9283866 -0.3709,1.0662767 -0.3709,1.0662779 1.36827,0.869033 c 0.75254,0.477969 2.04148,0.865918 2.8643,0.86211 z m 0.22514,-3.7881856 0.99737,-1 -0.72383,-1.174265 -0.72383,-1.174265 -0.99736,1 -0.99736,1 0.72383,1.174265 0.72382,1.1742647 0.99736,-0.9999997 z m -9.59618,-2.445098 0.60257,-0.604167 -0.52384,-1.3125 -0.52383,-1.3125 -0.0787,1.916667 -0.0787,1.916666 0.60258,-0.604166 z m 5.82141,0.270833 c 0.2419,0 0.69803,-0.418906 1.01363,-0.930902 l 0.57381,-0.930901 -1.01363,-0.628116 -1.01363,-0.628115 0,1.559017 c 0,0.857459 0.19792,1.559017 0.43982,1.559017 z m -152.038777,5.8235286 -7.1116741,0 -0.503882,-1.316568 C 8.2418121,9.782847 8.1588914,7.6850534 8.3346784,5.8451944 l 0.3196135,-3.345196 6.9815311,-0.2051213 6.98153,-0.205121 0.997362,1.2051213 0.997361,1.205121 2.978426,0 2.978426,0 0.350421,1.824404 0.350421,1.824404 -1.74535,1.9336906 -1.74535,1.933692 -1.709608,-1.551267 -1.709607,-1.5512669 -0.556839,1.4549359 -0.556838,1.454936 -7.111675,0 z m -3.989446,-0.823529 2.992085,0 0,-3.9999996 0,-4 -2.992085,0 -2.9920843,0 0,4 0,3.9999996 2.9920843,0 z m 0,-1.9999999 c -0.483801,0 -1.15702,-0.45 -1.496042,-0.9999997 l -0.616404,-1 2.112446,0 2.112446,0 -0.616404,1 C 13.302077,8.5499981 12.628858,8.9999981 12.145057,8.9999981 Z M 10.649015,4.9999984 c -0.274275,0 -0.498681,-0.225 -0.498681,-0.5 0,-0.275 0.224406,-0.5 0.498681,-0.5 0.274274,0 0.498681,0.225 0.498681,0.5 0,0.275 -0.224407,0.5 -0.498681,0.5 z m 2.992084,0 c -0.274274,0 -0.49868,-0.225 -0.49868,-0.5 0,-0.275 0.224406,-0.5 0.49868,-0.5 0.274275,0 0.498681,0.225 0.498681,0.5 0,0.275 -0.224406,0.5 -0.498681,0.5 z m 6.482851,3.9999997 c 0.483801,0 1.15702,-0.45 1.496042,-0.9999997 l 0.616403,-1 -2.112445,0 -2.112446,0 0.616403,1 c 0.339022,0.5499997 1.012241,0.9999997 1.496043,0.9999997 z M 18.627907,4.9999984 c 0.274275,0 0.498681,-0.225 0.498681,-0.5 0,-0.275 -0.224406,-0.5 -0.498681,-0.5 -0.274274,0 -0.498681,0.225 -0.498681,0.5 0,0.275 0.224407,0.5 0.498681,0.5 z m 2.992085,0 c 0.274274,0 0.498681,-0.225 0.498681,-0.5 0,-0.275 -0.224407,-0.5 -0.498681,-0.5 -0.274275,0 -0.498681,0.225 -0.498681,0.5 0,0.275 0.224406,0.5 0.498681,0.5 z m 22.440635,6.9999996 -1.932119,0 0.574085,-1.5 c 0.315747,-0.825 0.926862,-1.4999999 1.358034,-1.4999999 0.431171,0 1.042286,0.6749999 1.358033,1.4999999 l 0.574085,1.5 -1.932118,0 z m 8.069056,0 -2.022283,0 0.574086,-1.5 0.574085,-1.4999999 -1.353409,-0.115154 c -0.744374,-0.06333 -2.138831,-0.03505 -3.098791,0.06286 l -1.745383,0.178013 0,-1.5628587 0,-1.562858 -0.997361,0 -0.997362,0 0,1.5 0,1.4999997 -1.496042,0 -1.496042,0 0,-1.0418127 c 0,-0.572998 0.929073,-2.035498 2.064608,-3.25 l 2.064607,-2.208187 1.286769,1.75 c 0.707723,0.9625 1.650764,1.75 2.095646,1.75 0.444882,0 1.645479,-0.759118 2.667993,-1.686928 l 1.859117,-1.686928 2.208862,2.2446 2.208863,2.2446 L 54.68239,8.4911374 52.837133,9.86693 53.494549,10.933465 54.151965,12 52.129683,12 Z m 47.605099,-0.03804 c -0.176324,-0.02092 -0.899295,-0.695921 -1.606614,-1.5 l -1.286021,-1.4619599 1.045138,0 1.045135,0 -1.163223,-1.8675337 -1.163215,-1.867535 0.624777,-1.632465 0.62479,-1.6324663 2.057329,0 2.057322,0 0.62479,1.6324663 0.62478,1.632465 -1.16321,1.867535 -1.16323,1.8675337 1.07705,0 1.07707,0 -1.49605,1.4999999 c -0.82282,0.825 -1.640308,1.482883 -1.816618,1.461963 z m 0.178096,-4.9619596 0.997362,0 0,-2 0,-2 -0.997362,0 -0.997363,0 0,2 0,2 0.997363,0 z m 5.734832,4.8151346 -1.74539,0.331513 0,-1.014307 c 0,-0.557869 0.44882,-1.292422 0.99737,-1.6323409 l 0.99736,-0.618034 0,-3.4409827 0,-3.4409833 2.99208,0 2.99209,0 0,1.5000003 0,1.5 -1.93153,0 -1.93153,0 -0.31254,3.241811 -0.31253,3.2418096 -1.74538,0.331514 z m 3.24142,-7.8151346 1.32981,0 -0.6649,-0.666667 -0.66491,-0.666666 -0.66491,0.666666 -0.6649,0.666667 1.32981,0 z m 33.66095,7.9706866 c -0.13713,-0.01612 -1.59577,-1.258594 -3.24142,-2.7610479 l -2.99209,-2.7317337 3.24143,-2.837444 3.24142,-2.8374443 0,5.5984913 c 0,3.0791707 -0.1122,5.5853006 -0.24934,5.5691786 z m 11.22032,0.02931 c -0.54855,0 -0.99736,-0.45 -0.99736,-1 0,-0.55 0.44881,-1 0.99736,-1 0.54855,0 0.99736,0.45 0.99736,1 0,0.55 -0.44881,1 -0.99736,1 z m 3.98945,0 c -0.54855,0 -0.99736,-0.45 -0.99736,-1 0,-0.55 0.44881,-1 0.99736,-1 0.54855,0 0.99736,0.45 0.99736,1 0,0.55 -0.44881,1 -0.99736,1 z m 21.44327,0 -3.49076,0 0,-2 0,-1.9999996 3.49076,0 3.49077,0 0,1.9999996 0,2 -3.49077,0 z m 8.47757,-0.157895 -3.49076,0 1.28833,-0.518298 1.28833,-0.518299 -1.16112,-1.4027539 -1.1611,-1.4027537 1.11948,0 1.11948,0 0,-1.5 0,-1.5 -1.21108,0 -1.21108,0 1.70976,-1.714286 1.70976,-1.7142853 1.70977,1.7142853 1.70976,1.714286 -1.21108,0 -1.21108,0 0,1.5 0,1.5 1.11947,0 1.11949,0 -1.16111,1.4027537 -1.16111,1.4027539 1.28833,0.518299 1.28833,0.518298 -3.49077,0 z m 7.9789,0.157895 -0.99737,0 0,-3.4999999 0,-3.4999997 -1.21108,0 -1.21108,0 1.70976,-1.714286 1.70977,-1.7142853 1.70976,1.7142853 1.70976,1.714286 -1.21108,0 -1.21108,0 0,3.4999997 0,3.4999999 -0.99736,0 z m 7.97889,0 c -0.41422,0 -1.31184,-0.675 -1.99472,-1.5 l -1.24161,-1.4999999 1.11949,0 1.11948,0 0,-3.4999997 0,-3.5000003 0.99736,0 0.99736,0 0,3.5000003 0,3.4999997 1.11948,0 1.11949,0 -1.24161,1.4999999 c -0.68288,0.825 -1.58051,1.5 -1.99472,1.5 z M 37.249055,9.3457771 35.408144,11.016186 33.742142,9.1704041 32.07614,7.3246234 l 1.840912,-1.67041 1.840911,-1.670409 1.666003,1.845782 1.666001,1.845781 -1.840912,1.6704097 z m 38.972022,1.4743549 -2.248522,0.320137 -0.600928,-1.5701369 -0.600929,-1.5701367 0.600929,-1.570137 0.600928,-1.570137 2.248522,0.320137 2.248523,0.320137 0,2.5 0,2.4999996 -2.248523,0.320137 z M 75.976196,9.999998 c 0.483801,0 1.18119,-0.4892089 1.549752,-1.0871319 l 0.670111,-1.0871327 -1.109931,-1.112867 -1.109932,-1.112868 -1.109931,1.112868 -1.109931,1.112867 0.670111,1.0871327 c 0.368562,0.597923 1.06595,1.0871319 1.549751,1.0871319 z m 71.810034,1 c -0.41421,0 -1.31184,-0.675 -1.99472,-1.4999999 l -1.24161,-1.4999997 1.11949,0 1.11948,0 0,-1.5 0,-1.5 -1.21109,0 -1.21107,0 1.70975,-1.714286 1.70977,-1.7142853 1.70977,1.7142853 1.70976,1.714286 -1.21108,0 -1.21109,0 0,1.5 0,1.5 1.11948,0 1.11949,0 -1.2416,1.4999997 c -0.68289,0.8249999 -1.58051,1.4999999 -1.99473,1.4999999 z m 95.24803,0 c -1.91992,0 -3.49077,-0.247347 -3.49077,-0.54966 0,-0.302313 0.68475,-1.8773129 1.52166,-3.4999996 0.83691,-1.622687 1.72301,-2.95034 1.96911,-2.95034 0.2461,0 1.1322,1.327653 1.96911,2.95034 0.83691,1.6226867 1.52166,3.1976866 1.52166,3.4999996 0,0.302313 -1.57085,0.54966 -3.49077,0.54966 z m 7.97889,0 c -0.2461,0 -1.1322,-1.327653 -1.96911,-2.9503396 -0.8369,-1.622687 -1.52165,-3.197687 -1.52165,-3.5 0,-0.302313 1.57084,-0.54966 3.49076,-0.54966 1.91992,0 3.49077,0.247347 3.49077,0.54966 0,0.302313 -0.68475,1.877313 -1.52166,3.5 -0.8369,1.6226866 -1.72301,2.9503396 -1.96911,2.9503396 z m -190.994738,-1 c -0.483802,0 -1.18119,-0.4892089 -1.549752,-1.0871319 l -0.670111,-1.0871327 1.109931,-1.112867 1.109932,-1.112868 1.109931,1.112868 1.109931,1.112867 -0.670111,1.0871327 c -0.368562,0.597923 -1.06595,1.0871319 -1.549751,1.0871319 z m 151.417978,0 -0.9341,0 0.57233,-0.9285049 0.57233,-0.9285057 -2.25885,-0.435312 -2.25886,-0.435313 2.30293,-0.136182 2.30292,-0.136182 -0.6164,-1 -0.6164,-1 0.85674,0 c 0.47122,0 1.38465,0.529293 2.02986,1.176206 l 1.1731,1.176207 -1.09575,1.3237927 c -0.60267,0.728087 -1.5161,1.3237939 -2.02985,1.3237939 z m 7.42085,0 c -0.47121,0 -1.38465,-0.5292929 -2.02986,-1.1762059 l -1.1731,-1.1762067 1.09575,-1.323793 c 0.60267,-0.728087 1.5161,-1.323794 2.02985,-1.323794 l 0.9341,0 -0.57232,0.928506 -0.57234,0.928505 2.25885,0.435313 2.25886,0.435312 -2.30293,0.136182 -2.30292,0.136182 0.6164,0.9999997 0.6164,0.9999999 -0.85674,0 z m 8.46858,-0.149832 -3.74011,0.149832 0,-1.9999996 0,-2 0.99736,0 0.99736,0 0,1.433578 0,1.4335767 2.74275,0.416591 2.74274,0.4165899 -3.7401,0.149832 z m 7.39217,-1.0528339 -0.83606,1.2973349 -1.17096,-1.4146559 -1.17096,-1.4146557 1.41134,-1.174416 1.41136,-1.174416 0.59566,1.291737 0.59568,1.291738 0.59567,-1.291738 0.59567,-1.291737 1.41135,1.174416 1.41135,1.174416 -1.17096,1.4146557 -1.17097,1.4146559 -0.83605,-1.2973349 -0.83606,-1.2973337 -0.83606,1.2973337 z m -80.94759,0.202666 -0.99736,0 0,-3.4999997 0,-3.5000003 0.99736,0 0.99736,0 0,3.5000003 0,3.4999997 -0.99736,0 z m 3.98945,0 -0.99736,0 0,-3.4999997 0,-3.5000003 0.99736,0 0.99736,0 0,3.5000003 0,3.4999997 -0.99736,0 z"
     style="fill:#000000" />
</svg>
